<svg width="878" height="557" viewBox="0 0 878 557" fill="none" xmlns="http://www.w3.org/2000/svg">
<g clip-path="url(#clip0_1_2)">
<path d="M571.551 550.772L407.076 326.467C407.03 325.918 406.805 325.386 406.422 324.918C406.039 324.451 405.51 324.062 404.881 323.786C404.16 323.473 403.335 323.322 402.505 323.351C402.478 323.35 402.452 323.351 402.425 323.35C402.398 323.351 402.371 323.35 402.345 323.351C401.219 323.312 400.117 323.602 399.269 324.163C398.421 324.724 397.892 325.511 397.793 326.359L223.474 550.772C223.183 551.152 222.994 551.572 222.918 552.008C222.842 552.443 222.88 552.886 223.03 553.31C223.181 553.734 223.44 554.132 223.793 554.481C224.147 554.829 224.588 555.122 225.091 555.341C225.593 555.561 226.149 555.704 226.725 555.761C227.3 555.818 227.885 555.789 228.446 555.675C229.007 555.561 229.533 555.365 229.994 555.098C230.454 554.83 230.841 554.496 231.131 554.116L402.307 333.75L563.894 554.116C564.184 554.496 564.571 554.83 565.031 555.098C565.492 555.365 566.018 555.561 566.579 555.675C567.14 555.789 567.725 555.818 568.3 555.761C568.876 555.704 569.431 555.561 569.934 555.341C570.437 555.122 570.878 554.829 571.232 554.481C571.585 554.132 571.844 553.734 571.994 553.31C572.145 552.886 572.183 552.443 572.107 552.008C572.031 551.572 571.842 551.152 571.551 550.772Z" fill="#3F3D56"/>
<path d="M375.171 512.287L393.762 509.061L386.157 453.286L358.719 458.047L375.171 512.287Z" fill="#FFB6B6"/>
<path d="M389.544 485.343L363.087 489.934L354.628 477.429L354.149 476.986C350.396 473.502 348.313 469.159 348.239 464.666L326.25 420.667L324.451 420.021C323.06 419.52 321.827 418.801 320.832 417.911C319.838 417.021 319.106 415.981 318.686 414.86C318.265 413.74 318.165 412.564 318.393 411.412C318.621 410.259 319.172 409.157 320.008 408.178L317.68 403.521L251.991 403.612L251.925 403.598L171.26 386.482L179.73 348.292L202.421 359.089C209.898 358.722 337.98 352.773 349.813 374.485C360.35 393.82 375.533 426.851 386.416 451.157C386.958 452.248 387.633 453.299 388.431 454.297C390.124 456.269 391.117 458.538 391.316 460.884C391.444 461.905 391.702 462.915 392.085 463.899C396.608 474.126 389.717 485.073 389.647 485.183L389.544 485.343Z" fill="#2F2E41"/>
<path d="M368.89 507.624L374.935 506.575L396.332 495.221L411.181 500.284L411.183 500.284C418.33 499.044 425.837 500.002 432.05 502.948C438.264 505.894 442.676 510.586 444.316 515.993L444.517 516.655L375.275 528.672L368.89 507.624Z" fill="#2F2E41"/>
<path d="M94.3992 508.876C96.2894 493.314 108.34 477.734 127.669 472.215C120.64 488.356 121.384 505.858 129.772 521.623C133.036 527.695 137.502 534.19 134.94 540.451C133.346 544.347 129.172 547.4 124.444 549.36C119.716 551.32 114.42 552.328 109.189 553.317L108.18 553.991C99.212 539.912 92.5091 524.438 94.3992 508.876Z" fill="#F0F0F0"/>
<path d="M127.876 472.503C116.904 482.425 110.345 494.71 109.13 507.612C108.803 510.386 109.056 513.182 109.88 515.897C110.796 518.521 112.624 520.912 115.175 522.822C117.506 524.638 120.168 526.292 121.875 528.505C122.726 529.648 123.249 530.914 123.408 532.22C123.567 533.527 123.359 534.844 122.798 536.085C121.507 539.205 118.81 541.788 116.057 544.245C113.001 546.973 109.769 549.77 108.571 553.317C108.425 553.747 107.552 553.552 107.697 553.122C109.781 546.951 117.481 543.287 120.989 537.689C122.626 535.077 123.233 532.076 121.48 529.403C119.948 527.065 117.205 525.358 114.823 523.534C112.299 521.699 110.407 519.425 109.313 516.909C108.309 514.235 107.913 511.451 108.144 508.677C108.531 502.425 110.216 496.258 113.136 490.402C116.419 483.705 121.193 477.481 127.251 472.001C127.627 471.662 128.248 472.166 127.876 472.503Z" fill="white"/>
<path d="M109.198 503.44C106.364 502.992 103.832 501.797 102.056 500.067C100.279 498.338 99.3737 496.187 99.5003 493.999C99.5065 493.91 99.5583 493.826 99.6447 493.765C99.7311 493.704 99.8453 493.671 99.9634 493.673C100.081 493.674 100.194 493.71 100.278 493.773C100.361 493.837 100.409 493.922 100.411 494.011C100.288 496.048 101.132 498.052 102.791 499.66C104.449 501.268 106.813 502.374 109.455 502.78C110.029 502.868 109.769 503.529 109.198 503.44Z" fill="white"/>
<path d="M113.833 522.018C118.814 519.601 122.409 515.852 123.899 511.519C124.046 511.09 124.919 511.285 124.772 511.714C123.21 516.221 119.46 520.116 114.268 522.623C113.773 522.862 113.34 522.256 113.833 522.018Z" fill="white"/>
<path d="M117.292 484.336C118.34 484.682 119.486 484.826 120.627 484.755C121.767 484.683 122.866 484.398 123.825 483.926C124.316 483.683 124.749 484.289 124.261 484.531C123.198 485.049 121.984 485.362 120.724 485.444C119.464 485.525 118.197 485.371 117.034 484.997C116.92 484.969 116.825 484.909 116.768 484.829C116.711 484.75 116.696 484.657 116.726 484.569C116.761 484.482 116.84 484.408 116.946 484.365C117.051 484.321 117.176 484.311 117.292 484.336Z" fill="white"/>
<path d="M188.414 498.452C188.114 498.611 187.813 498.77 187.512 498.934C183.483 501.081 179.692 503.472 176.175 506.084C175.899 506.282 175.623 506.487 175.355 506.691C166.97 513.051 160.22 520.534 155.447 528.758C153.552 532.032 151.988 535.41 150.77 538.864C149.089 543.633 147.768 548.905 144.206 552.859C143.841 553.275 143.442 553.673 143.011 554.052L109.345 554.869C109.267 554.842 109.189 554.821 109.111 554.794L107.769 554.873C107.815 554.691 107.869 554.504 107.915 554.323C107.941 554.217 107.975 554.112 108.001 554.006C108.021 553.936 108.042 553.866 108.054 553.802C108.061 553.778 108.068 553.755 108.074 553.737C108.087 553.673 108.108 553.614 108.121 553.556C108.414 552.508 108.718 551.459 109.033 550.41C109.033 550.405 109.033 550.405 109.04 550.399C111.333 542.39 114.875 534.616 119.59 527.239C119.734 527.02 119.878 526.796 120.038 526.577C122.228 523.309 124.767 520.181 127.63 517.226C129.205 515.612 130.887 514.059 132.669 512.573C137.284 508.741 142.667 505.482 148.621 502.915C160.491 497.799 174.392 495.612 187.421 498.244C187.755 498.311 188.081 498.379 188.414 498.452Z" fill="#F0F0F0"/>
<path d="M188.352 498.777C171.695 501.703 156.68 508.525 145.439 518.273C142.97 520.339 140.947 522.687 139.445 525.229C138.087 527.742 137.643 530.484 138.16 533.17C138.575 535.682 139.385 538.215 138.986 540.759C138.756 542.06 138.165 543.308 137.252 544.424C136.34 545.539 135.126 546.496 133.69 547.232C130.175 549.135 125.966 549.969 121.812 550.677C117.2 551.463 112.393 552.225 108.613 554.511C108.155 554.788 107.614 554.235 108.071 553.958C114.648 549.98 123.711 550.561 130.969 547.689C134.355 546.348 137.228 544.228 137.956 541.296C138.593 538.732 137.762 536.12 137.312 533.579C136.757 530.964 137.057 528.286 138.186 525.779C139.512 523.187 141.412 520.784 143.805 518.674C149.09 513.859 155.344 509.702 162.337 506.356C170.289 502.504 179.055 499.709 188.253 498.093C188.823 497.993 188.918 498.678 188.352 498.777Z" fill="white"/>
<path d="M148.814 514.973C146.908 513.325 145.839 511.217 145.797 509.027C145.755 506.837 146.744 504.708 148.587 503.018C148.961 502.677 149.679 503.101 149.304 503.443C147.584 505.013 146.663 506.997 146.708 509.037C146.752 511.076 147.759 513.036 149.546 514.563C149.934 514.895 149.2 515.303 148.814 514.973Z" fill="white"/>
<path d="M137.728 531.917C143.629 532.256 149.483 530.899 154.122 528.118C154.581 527.843 155.123 528.396 154.664 528.672C149.83 531.559 143.734 532.961 137.594 532.599C137.008 532.564 137.145 531.883 137.728 531.917Z" fill="white"/>
<path d="M170.483 503.405C171.045 504.16 171.845 504.796 172.813 505.258C173.781 505.721 174.885 505.994 176.026 506.053C176.612 506.083 176.474 506.764 175.893 506.735C174.632 506.664 173.413 506.362 172.342 505.853C171.272 505.344 170.382 504.644 169.751 503.816C169.683 503.741 169.655 503.65 169.673 503.561C169.69 503.471 169.752 503.39 169.846 503.334C169.943 503.28 170.065 503.257 170.184 503.271C170.303 503.284 170.411 503.332 170.483 503.405Z" fill="white"/>
<path d="M645.212 508.876C643.322 493.314 631.271 477.734 611.942 472.215C618.972 488.356 618.227 505.858 609.84 521.623C606.576 527.695 602.11 534.19 604.671 540.451C606.265 544.347 610.44 547.4 615.167 549.36C619.895 551.32 625.192 552.328 630.423 553.317L631.432 553.991C640.4 539.912 647.103 524.438 645.212 508.876Z" fill="#F0F0F0"/>
<path d="M611.736 472.503C622.707 482.425 629.266 494.71 630.482 507.612C630.809 510.386 630.555 513.182 629.731 515.897C628.816 518.521 626.987 520.912 624.437 522.822C622.106 524.638 619.443 526.292 617.737 528.505C616.885 529.648 616.363 530.914 616.204 532.22C616.045 533.527 616.252 534.844 616.813 536.085C618.105 539.205 620.801 541.788 623.554 544.245C626.611 546.973 629.843 549.77 631.041 553.317C631.186 553.747 632.059 553.552 631.914 553.122C629.83 546.951 622.131 543.287 618.622 537.689C616.985 535.077 616.379 532.076 618.131 529.403C619.663 527.065 622.407 525.358 624.788 523.534C627.313 521.699 629.204 519.425 630.299 516.909C631.303 514.235 631.698 511.451 631.468 508.677C631.08 502.425 629.396 496.258 626.476 490.402C623.192 483.705 618.418 477.481 612.36 472.001C611.985 471.662 611.363 472.166 611.736 472.503Z" fill="white"/>
<path d="M630.414 503.44C633.248 502.992 635.779 501.797 637.556 500.067C639.332 498.338 640.238 496.187 640.111 493.999C640.105 493.91 640.053 493.826 639.967 493.765C639.881 493.704 639.766 493.671 639.648 493.672C639.53 493.674 639.417 493.71 639.334 493.773C639.25 493.837 639.203 493.922 639.201 494.011C639.324 496.048 638.479 498.052 636.821 499.66C635.162 501.268 632.799 502.374 630.156 502.78C629.582 502.868 629.843 503.529 630.414 503.44Z" fill="white"/>
<path d="M625.779 522.018C620.797 519.601 617.203 515.852 615.713 511.519C615.566 511.09 614.693 511.285 614.84 511.714C616.401 516.221 620.152 520.116 625.344 522.623C625.839 522.862 626.271 522.256 625.779 522.018Z" fill="white"/>
<path d="M622.32 484.336C621.271 484.682 620.125 484.826 618.985 484.755C617.844 484.683 616.745 484.398 615.786 483.926C615.295 483.683 614.863 484.289 615.351 484.531C616.413 485.049 617.628 485.362 618.888 485.444C620.147 485.525 621.414 485.371 622.578 484.997C622.691 484.969 622.786 484.909 622.843 484.829C622.901 484.75 622.916 484.657 622.886 484.569C622.851 484.482 622.772 484.408 622.666 484.365C622.56 484.321 622.436 484.311 622.32 484.336Z" fill="white"/>
<path d="M551.197 498.452C551.498 498.611 551.799 498.77 552.1 498.934C556.129 501.081 559.92 503.472 563.437 506.084C563.713 506.282 563.989 506.487 564.257 506.691C572.641 513.051 579.392 520.534 584.165 528.758C586.06 532.032 587.623 535.41 588.841 538.864C590.523 543.633 591.844 548.905 595.405 552.859C595.771 553.275 596.17 553.673 596.601 554.052L630.267 554.869C630.345 554.842 630.422 554.821 630.501 554.794L631.843 554.873C631.796 554.691 631.743 554.504 631.697 554.323C631.67 554.217 631.637 554.112 631.61 554.006C631.59 553.936 631.57 553.866 631.557 553.802C631.551 553.778 631.544 553.755 631.537 553.737C631.525 553.673 631.504 553.614 631.491 553.556C631.197 552.508 630.893 551.459 630.579 550.41C630.579 550.405 630.579 550.405 630.572 550.399C628.278 542.39 624.737 534.616 620.022 527.239C619.877 527.02 619.733 526.796 619.573 526.577C617.384 523.309 614.844 520.181 611.981 517.226C610.407 515.612 608.725 514.059 606.943 512.573C602.328 508.741 596.945 505.482 590.991 502.915C579.121 497.799 565.22 495.612 552.19 498.244C551.857 498.311 551.531 498.379 551.197 498.452Z" fill="#F0F0F0"/>
<path d="M551.259 498.777C567.917 501.703 582.932 508.525 594.172 518.273C596.641 520.339 598.664 522.687 600.167 525.229C601.525 527.742 601.968 530.484 601.452 533.17C601.036 535.682 600.227 538.215 600.626 540.759C600.856 542.059 601.447 543.308 602.359 544.424C603.272 545.539 604.486 546.496 605.922 547.232C609.436 549.135 613.646 549.969 617.799 550.677C622.411 551.463 627.218 552.225 630.998 554.511C631.456 554.788 631.998 554.235 631.54 553.958C624.964 549.98 615.9 550.561 608.643 547.689C605.257 546.348 602.384 544.228 601.655 541.296C601.018 538.732 601.85 536.119 602.3 533.579C602.854 530.964 602.554 528.286 601.426 525.779C600.099 523.187 598.199 520.784 595.807 518.674C590.521 513.859 584.268 509.702 577.275 506.356C569.322 502.504 560.557 499.709 551.358 498.093C550.789 497.993 550.694 498.678 551.259 498.777Z" fill="white"/>
<path d="M590.797 514.973C592.704 513.325 593.773 511.217 593.815 509.027C593.857 506.837 592.868 504.708 591.025 503.018C590.651 502.677 589.933 503.101 590.308 503.443C592.027 505.013 592.948 506.997 592.904 509.037C592.859 511.076 591.853 513.036 590.066 514.563C589.678 514.895 590.412 515.303 590.797 514.973Z" fill="white"/>
<path d="M601.884 531.917C595.982 532.256 590.128 530.899 585.49 528.118C585.031 527.843 584.489 528.396 584.948 528.672C589.782 531.559 595.877 532.961 602.018 532.599C602.603 532.564 602.466 531.883 601.884 531.917Z" fill="white"/>
<path d="M569.129 503.405C568.567 504.16 567.766 504.796 566.799 505.258C565.831 505.721 564.727 505.994 563.585 506.053C563 506.083 563.137 506.764 563.719 506.735C564.98 506.664 566.199 506.362 567.269 505.853C568.34 505.344 569.23 504.644 569.86 503.816C569.928 503.741 569.957 503.65 569.939 503.561C569.921 503.471 569.859 503.39 569.766 503.334C569.668 503.28 569.547 503.257 569.428 503.271C569.309 503.284 569.201 503.332 569.129 503.405Z" fill="white"/>
<path d="M878 556.116C877.999 556.35 877.876 556.575 877.657 556.74C877.438 556.906 877.141 556.999 876.831 557H1.16955C0.85948 557 0.562106 556.907 0.342853 556.741C0.1236 556.575 0.000427246 556.35 0.000427246 556.116C0.000427246 555.881 0.1236 555.656 0.342853 555.49C0.562106 555.325 0.85948 555.231 1.16955 555.231H876.831C877.141 555.232 877.438 555.325 877.657 555.491C877.876 555.657 877.999 555.881 878 556.116Z" fill="#3F3D56"/>
<path d="M564.039 214.022C566.48 214.022 568.46 212.525 568.46 210.678C568.46 208.831 566.48 207.334 564.039 207.334C561.597 207.334 559.618 208.831 559.618 210.678C559.618 212.525 561.597 214.022 564.039 214.022Z" fill="#3F3D56"/>
<path d="M508.678 236.437L568.281 208.113C568.82 207.856 569.422 207.685 570.051 207.61C570.68 207.535 571.323 207.557 571.94 207.674C572.558 207.792 573.137 208.003 573.644 208.295C574.15 208.587 574.573 208.954 574.887 209.373C575.201 209.792 575.399 210.255 575.47 210.733C575.541 211.212 575.483 211.697 575.3 212.158C575.116 212.619 574.811 213.047 574.402 213.417C573.994 213.786 573.49 214.089 572.923 214.308L510.175 238.433C509.826 238.567 509.423 238.594 509.049 238.509C508.674 238.424 508.358 238.233 508.165 237.976C507.973 237.719 507.918 237.415 508.014 237.128C508.11 236.842 508.347 236.594 508.678 236.437Z" fill="#E4E4E4"/>
<path d="M389.104 297.425C388.634 296.897 388.389 296.273 388.401 295.637C388.413 295.001 388.682 294.383 389.172 293.865C390.18 292.844 391.523 292.038 393.068 291.528C396.257 290.3 399.692 289.479 403.235 289.098C405.927 288.809 408.866 288.716 410.954 287.399C413.029 286.09 414.186 283.643 416.874 283.439C419.472 283.242 421.47 285.393 424.076 285.527C427.288 285.691 429.391 282.848 432.516 282.265C434.609 281.874 436.76 282.563 438.722 283.237L450.499 287.278L456.535 289.35C458.644 290.073 461.022 291.047 461.42 292.773C461.967 295.143 458.482 296.816 455.501 297.657C434.221 303.598 410.837 303.6 389.554 297.664" fill="#1976D2"/>
<path d="M406.846 341.098C492.304 341.098 561.582 333.612 561.582 324.377C561.582 315.143 492.304 307.657 406.846 307.657C321.387 307.657 252.109 315.143 252.109 324.377C252.109 333.612 321.387 341.098 406.846 341.098Z" fill="#3F3D56"/>
<path d="M720.74 428.044H614.635C609.751 428.044 605.793 431.039 605.793 434.732C605.793 438.426 609.751 441.421 614.635 441.421H720.74C725.623 441.421 729.582 438.426 729.582 434.732C729.582 431.039 725.623 428.044 720.74 428.044Z" fill="#3F3D56"/>
<path d="M772.162 308.801L737.117 434.725L746.244 466.955L763.477 527.78V555.12C763.478 555.157 763.475 555.195 763.467 555.231C763.461 555.836 763.315 556.434 763.034 557H749.182C748.902 556.434 748.756 555.836 748.75 555.231C748.742 555.195 748.738 555.157 748.74 555.12V528.954L733.099 473.747L729.936 462.6L723.815 440.997L722.047 434.74V434.732L723.795 428.46L725.141 423.623L757.739 306.512C757.937 305.795 758.32 305.115 758.866 304.51C759.411 303.905 760.109 303.388 760.92 302.987C761.73 302.586 762.637 302.31 763.588 302.175C764.54 302.039 765.517 302.047 766.465 302.197C767.412 302.347 768.312 302.638 769.111 303.051C769.91 303.464 770.594 303.993 771.123 304.606C771.652 305.219 772.016 305.906 772.194 306.625C772.372 307.345 772.361 308.085 772.162 308.801Z" fill="#3F3D56"/>
<path d="M622.003 434.732V555.12C622.005 555.157 622.002 555.194 621.994 555.231C621.988 555.836 621.841 556.434 621.561 557H607.709C607.429 556.434 607.282 555.836 607.276 555.231C607.268 555.194 607.265 555.157 607.266 555.12V434.732C607.266 433.254 608.043 431.837 609.425 430.791C610.806 429.746 612.681 429.159 614.635 429.159C616.589 429.159 618.463 429.746 619.845 430.791C621.227 431.837 622.003 433.254 622.003 434.732Z" fill="#3F3D56"/>
<path d="M632.319 414.668H703.056C710.091 414.668 716.838 416.782 721.813 420.545C726.787 424.307 729.582 429.411 729.582 434.732H605.793C605.793 429.411 608.587 424.307 613.562 420.545C618.537 416.782 625.284 414.668 632.319 414.668Z" fill="#3F3D56"/>
<path d="M738.424 473.747H614.635C612.681 473.747 610.806 473.16 609.425 472.114C608.043 471.069 607.266 469.652 607.266 468.173C607.266 466.695 608.043 465.278 609.425 464.232C610.806 463.187 612.681 462.6 614.635 462.6H738.424C740.378 462.6 742.253 463.187 743.634 464.232C745.016 465.278 745.793 466.695 745.793 468.173C745.793 469.652 745.016 471.069 743.634 472.114C742.253 473.16 740.378 473.747 738.424 473.747Z" fill="#3F3D56"/>
<path d="M162.617 441.623H287.478C292.361 441.623 296.32 438.629 296.32 434.935V432.908C296.32 429.215 292.361 426.22 287.478 426.22H162.617C157.733 426.22 153.774 429.215 153.774 432.908V434.935C153.774 438.629 157.733 441.623 162.617 441.623Z" fill="#3F3D56"/>
<path d="M161.331 434.012L159.071 441.056L150.779 466.858L147.203 478.005L130.599 529.712V552.147C130.603 553.246 130.172 554.32 129.361 555.231C128.724 555.968 127.857 556.576 126.837 557H119.625C118.605 556.576 117.738 555.968 117.1 555.231C116.289 554.32 115.858 553.246 115.862 552.147V528.375L134.313 470.93L146.22 433.833L105.842 288.737C105.642 288.021 105.63 287.282 105.808 286.562C105.986 285.843 106.35 285.157 106.879 284.544C107.407 283.931 108.09 283.402 108.889 282.989C109.688 282.576 110.586 282.286 111.533 282.136C112.48 281.985 113.457 281.977 114.408 282.113C115.359 282.248 116.265 282.524 117.075 282.924C117.885 283.325 118.583 283.842 119.128 284.447C119.674 285.051 120.056 285.731 120.254 286.448L157.578 420.531L159.297 426.714L161.301 433.922L161.331 434.012Z" fill="#3F3D56"/>
<path d="M293.51 433.922V552.147C293.514 553.246 293.083 554.32 292.272 555.231C291.634 555.968 290.767 556.576 289.747 557H282.526C281.511 556.573 280.647 555.966 280.011 555.231C279.2 554.32 278.769 553.246 278.773 552.147V433.922C278.773 432.444 279.549 431.027 280.931 429.981C282.313 428.936 284.187 428.349 286.142 428.349C288.096 428.349 289.97 428.936 291.352 429.981C292.734 431.027 293.51 432.444 293.51 433.922Z" fill="#3F3D56"/>
<path d="M296.32 433.922H153.774V430.882C153.774 428.247 154.461 425.638 155.794 423.203C157.127 420.769 159.081 418.557 161.544 416.694C164.007 414.831 166.931 413.353 170.15 412.344C173.368 411.336 176.817 410.817 180.301 410.817H269.793C276.829 410.817 283.576 412.931 288.55 416.694C293.525 420.457 296.32 425.56 296.32 430.882L296.32 433.922Z" fill="#3F3D56"/>
<path d="M286.138 478.003H143.593C141.638 478.003 139.764 477.416 138.382 476.37C137.001 475.325 136.224 473.907 136.224 472.429C136.224 470.951 137.001 469.533 138.382 468.488C139.764 467.443 141.638 466.856 143.593 466.856H286.138C288.092 466.856 289.966 467.443 291.348 468.488C292.73 469.533 293.506 470.951 293.506 472.429C293.506 473.907 292.73 475.325 291.348 476.37C289.966 477.416 288.092 478.003 286.138 478.003Z" fill="#3F3D56"/>
<path d="M469.331 526.621L453.845 521.019L475.118 472.055L497.976 480.323L469.331 526.621Z" fill="#9E616A"/>
<path d="M574.286 522.186L557.633 525.294L533.505 477.104L558.084 472.517L574.286 522.186Z" fill="#9E616A"/>
<path d="M510.459 313.8C512.668 316.514 516.191 318.467 520.278 319.242C524.364 320.018 528.689 319.554 532.33 317.951C533.062 317.616 533.756 317.235 534.405 316.813L583.367 338.067L581.241 316.249L535.072 299.412C532.559 297.503 529.281 296.278 525.75 295.931C522.219 295.583 518.635 296.131 515.56 297.489C513.79 298.293 512.25 299.357 511.032 300.618C509.813 301.879 508.941 303.312 508.465 304.832C507.99 306.352 507.921 307.928 508.264 309.468C508.606 311.009 509.352 312.482 510.459 313.8Z" fill="#9E616A"/>
<path d="M562.317 330.063L570.972 334.053L609.842 351.982C612.395 353.19 615.238 354.006 618.208 354.383C621.179 354.759 624.218 354.69 627.152 354.177C630.087 353.665 632.859 352.72 635.311 351.397C637.762 350.074 639.845 348.398 641.44 346.465C644.318 342.879 645.336 338.612 644.298 334.491L627.022 269.205C626.384 266.642 625.022 264.214 623.028 262.086C621.035 259.958 618.458 258.18 615.473 256.875C612.488 255.57 609.166 254.768 605.733 254.523C602.3 254.278 598.838 254.597 595.584 255.458C590.113 256.912 585.58 259.888 582.907 263.781C580.235 267.673 579.623 272.19 581.197 276.411L599.261 322.743L571.571 312.978L562.317 330.063Z" fill="#E6E6E6"/>
<path d="M541.854 508.682L515.206 468.256L515.209 468.164L517.84 394.017C517.873 393.357 517.944 392.695 518.05 392.043C518.515 389.07 519.757 386.197 521.705 383.591C523.653 380.985 526.267 378.698 529.396 376.864C532.392 375.091 535.824 373.787 539.494 373.028C543.163 372.269 546.996 372.07 550.768 372.443L626.967 379.902L629.609 371.728L630.102 371.593L703.112 351.353L703.533 351.871C713.095 363.64 719.779 387.148 721.6 394.072L721.626 394.172C721.665 394.318 721.688 394.406 721.696 394.432C725.454 406.248 709.924 425.823 694.453 428.765C661.865 435.048 632.72 430.147 598.973 424.471C586.871 422.435 574.365 420.331 560.589 418.512L560.998 424.645C561.334 429.365 562.631 434.018 564.842 438.439C567.298 443.881 569.239 448.179 565.136 457.14L563.151 461.475C564.181 463.628 564.535 465.931 564.186 468.205C563.838 470.478 562.796 472.659 561.143 474.576L560.744 475.037L578.317 508.674L541.854 508.682Z" fill="#2F2E41"/>
<path d="M498.07 490.804L466.293 488.57L477.551 461.336C479.874 443.554 485.728 426.138 494.915 409.676L510.271 382.149C510.307 381.536 510.375 380.92 510.474 380.316C510.938 377.343 512.181 374.469 514.129 371.863C516.077 369.257 518.691 366.971 521.819 365.137C524.816 363.365 528.248 362.061 531.918 361.302C535.587 360.543 539.419 360.344 543.191 360.716L619.277 368.164L622.591 347.126L695.622 339.733L695.956 340.145C708.721 355.855 716.825 368.153 721.46 378.85C721.692 379.395 721.899 379.952 722.075 380.506C725.86 392.403 716.413 404.464 701.018 407.392C661.784 414.958 614.604 414.748 552.573 406.727L522.552 460.768C519.682 465.929 516.129 470.858 511.948 475.479L498.07 490.804Z" fill="#2F2E41"/>
<path d="M608.915 217.99C629.245 217.99 645.725 205.246 645.725 189.526C645.725 173.806 629.245 161.062 608.915 161.062C588.585 161.062 572.105 173.806 572.105 189.526C572.105 205.246 588.585 217.99 608.915 217.99Z" fill="#9E616A"/>
<path d="M619.544 369.158L614.262 354.846L612.963 347.786L605.372 347.978L590.473 321.965L584.686 315.106C583.506 314.166 582.437 313.263 581.479 312.395C575.45 307.24 570.615 301.351 567.179 294.978C564.772 290.398 563.358 285.555 562.993 280.635C561.913 266.101 570.013 250.724 587.756 233.628C587.466 233.023 587.272 232.394 587.179 231.754C586.861 229.677 587.641 227.59 589.348 225.945C591.055 224.301 593.552 223.234 596.294 222.974L613.408 221.521C614.739 221.407 616.086 221.494 617.372 221.778C618.658 222.061 619.856 222.535 620.897 223.173C621.984 223.832 622.887 224.648 623.553 225.574C624.219 226.499 624.635 227.516 624.776 228.564C625.005 230.186 624.583 231.822 623.566 233.26C632.289 234.098 640.507 236.821 647.236 241.104C653.964 245.386 658.916 251.046 661.498 257.404C671.738 271.864 679.9 287.112 685.844 302.888C687.016 305.978 686.494 309.162 685.989 312.241C685.523 315.085 685.042 318.026 685.852 320.957C686.676 323.938 688.659 326.929 690.759 330.095C693.163 333.722 695.649 337.471 696.322 341.294L696.369 341.562L619.544 369.158Z" fill="#E4E4E4"/>
<path opacity="0.2" d="M567.634 294.837C571.054 301.173 575.862 307.029 581.856 312.156C582.882 313.083 583.966 313.994 585.101 314.907L590.924 321.817C612.389 309.648 629.78 261.729 629.78 261.729L605.561 258.166L567.634 294.837Z" fill="black"/>
<path d="M552.972 220.649C555.092 223.404 555.708 226.677 554.688 229.771C553.667 232.864 551.091 235.534 547.507 237.213C546.772 237.546 546.001 237.832 545.203 238.068L546.918 280.75L522.482 269.114L524.6 230.367C523.56 227.788 523.678 225.022 524.936 222.5C526.193 219.977 528.519 217.841 531.55 216.423C533.316 215.615 535.278 215.083 537.32 214.859C539.363 214.634 541.444 214.721 543.441 215.115C545.437 215.509 547.31 216.202 548.947 217.152C550.584 218.103 551.952 219.292 552.972 220.649Z" fill="#9E616A"/>
<path d="M549.065 264.639L522.193 267.529L523.349 309.621C523.416 312.624 524.497 315.564 526.489 318.162C528.481 320.759 531.319 322.929 534.731 324.463C538.901 326.319 543.755 327.099 548.561 326.686C553.368 326.273 557.867 324.69 561.38 322.175L624.822 276.017C629.286 272.814 631.957 268.439 632.287 263.792C632.617 259.145 630.58 254.578 626.595 251.033C624.623 249.267 622.202 247.819 619.476 246.775C616.751 245.73 613.775 245.111 610.727 244.953C607.678 244.795 604.619 245.102 601.73 245.856C598.842 246.609 596.183 247.794 593.911 249.34C593.284 249.764 592.688 250.213 592.125 250.686L550.233 287.138L549.065 264.639Z" fill="#E6E6E6"/>
<path d="M324.312 539.193L343.385 539.192L352.459 483.544L324.309 483.544L324.312 539.193Z" fill="#FFB6B6"/>
<path d="M216.2 218.816C237.225 218.816 254.268 205.924 254.268 190.021C254.268 174.118 237.225 161.226 216.2 161.226C195.175 161.226 178.131 174.118 178.131 190.021C178.131 205.924 195.175 218.816 216.2 218.816Z" fill="#FFB6B6"/>
<path d="M349.61 522.05H322.601L315.715 515.069L313.851 508.491L312.247 507.317C310.07 505.737 308.663 503.647 308.254 501.386C307.844 499.126 308.455 496.826 309.989 494.862L290.414 425.779C285.287 425.438 227.469 421.528 187.277 416.147C176.992 414.771 168.961 410.989 163.408 404.907C149.764 389.962 155.609 365.78 155.669 365.538L155.737 365.268L156.097 365.237L249.975 357.267L250.102 357.312C253.217 358.429 326.538 384.758 338.52 393.821C343.931 397.913 356.002 422.229 358.704 448.079C359.188 452.71 357.446 457.427 355.761 461.988C354.185 466.255 352.555 470.668 352.877 474.84C353.374 481.277 353.845 488.029 354.277 494.908C354.346 496.005 355.438 497.139 356.494 498.236C357.597 499.382 358.639 500.465 358.705 501.598C359.347 512.584 349.854 521.817 349.758 521.909L349.61 522.05Z" fill="#2F2E41"/>
<path d="M355.761 266.717C353.716 266.294 351.573 266.215 349.483 266.486C347.394 266.758 345.408 267.372 343.667 268.287C341.925 269.201 340.47 270.393 339.403 271.779C338.337 273.165 337.685 274.711 337.494 276.308L305.863 283.786L307.183 299.434L351.655 288.399C355.223 288.464 358.699 287.537 361.424 285.793C364.149 284.049 365.934 281.61 366.44 278.937C366.946 276.265 366.139 273.545 364.17 271.292C362.202 269.04 359.21 267.412 355.761 266.717Z" fill="#FFB6B6"/>
<path d="M335.123 292.611L311.483 299.379L310.878 300.265C309.429 302.392 306.922 303.996 303.909 304.725C300.896 305.454 297.624 305.247 294.813 304.151L241.677 319.363C241.677 319.363 217.948 301.401 201.054 285.372L206.811 258.583C208.145 252.368 210.979 246.391 215.173 240.952C249.82 246.698 269.709 283.334 269.709 283.334L332.152 274.322L335.123 292.611Z" fill="#1976D2"/>
<path d="M210.79 217.277C201.26 219.224 190.753 216.635 183.315 211.725C175.878 206.815 171.225 199.858 168.544 192.671C166.581 187.408 165.65 181.565 168.748 176.624C171.847 171.683 180.185 168.349 186.618 170.845C182.649 167.348 184.632 161.564 189.267 158.572C193.902 155.58 200.266 154.722 206.328 154.253C215.125 153.573 224.212 153.497 232.583 155.652C240.954 157.808 248.56 162.521 251.18 168.91C253.856 169.852 256.869 170.096 259.748 169.605C262.627 169.113 265.209 167.913 267.09 166.192C267.575 168.168 267.186 170.21 265.982 172.002C264.778 173.794 262.828 175.236 260.432 176.104L273.258 172.959C275.463 176.491 271.598 180.862 266.656 181.992C261.713 183.123 256.378 181.887 251.687 180.253C246.997 178.619 242.452 176.554 237.357 175.916C232.262 175.279 226.278 176.517 223.921 179.993C222.687 181.813 222.623 183.945 221.906 185.918C221.189 187.891 219.374 189.936 216.678 190.097C214.974 190.199 213.307 189.513 211.608 189.653C209.502 189.827 207.89 191.27 207.329 192.815C206.906 194.39 206.901 196.013 207.314 197.589L210.572 216.426" fill="#2F2E41"/>
<path d="M163.627 408.348C163.62 408.348 163.613 408.347 163.606 408.346L163.305 408.307L163.217 408.086C162.123 405.301 160.73 402.451 159.383 399.694C157.4 395.877 155.725 391.971 154.368 388C153.3 384.203 152.56 380.358 152.151 376.488C151.776 373.679 151.387 370.774 150.726 367.914C150.433 366.645 151.545 365.442 152.62 364.279C153.617 363.201 154.558 362.183 154.361 361.219C154.159 360.234 152.714 359.152 151.317 358.106C149.786 356.959 148.203 355.772 147.979 354.524C144.927 337.491 143.507 320.314 143.729 303.127C144.044 279.346 145.465 263.137 147.952 254.948C154.638 232.932 185.529 228.914 190.365 228.418C190.88 227.38 191.672 226.434 192.691 225.638C193.71 224.842 194.935 224.213 196.29 223.79C197.644 223.368 199.099 223.161 200.564 223.182C202.029 223.203 203.473 223.452 204.805 223.913L226.754 231.513C231.206 233.06 235.19 235.283 238.459 238.044C241.727 240.805 244.21 244.045 245.753 247.563L249.013 255.082L250.646 305.555L241.596 341.098L259.28 361.162C165.029 400.303 163.931 408.348 163.627 408.348Z" fill="#1976D2"/>
<path d="M314.048 533.586L320.25 533.585L344.461 526.138L357.438 533.584H357.439C364.773 533.585 371.806 535.788 376.991 539.71C382.177 543.633 385.09 548.952 385.091 554.499V555.179L314.05 555.181L314.048 533.586Z" fill="#2F2E41"/>
<path d="M363.681 302.735C361.852 301.923 359.811 301.424 357.7 301.274C355.589 301.123 353.461 301.325 351.464 301.864C349.467 302.403 347.651 303.266 346.143 304.394C344.636 305.521 343.473 306.885 342.738 308.389L309.624 309.366L305.162 321.033L352.238 322.856C355.661 323.623 359.336 323.414 362.568 322.268C365.8 321.123 368.364 319.12 369.775 316.64C371.185 314.159 371.344 311.374 370.221 308.811C369.097 306.248 366.77 304.086 363.681 302.735Z" fill="#FFB6B6"/>
<path d="M336.48 324.114L302.465 323.793L298.159 323.749L228.954 323.09C228.954 323.09 210.161 309.528 193.797 295.566L196.09 283.017C198.327 270.702 206.404 259.421 218.817 251.274C242.254 263.119 255.846 286.567 255.846 286.567L278.635 294.28C294.674 294.823 310.302 298.285 324.194 304.373L331.688 307.657L336.48 324.114Z" fill="#1976D2"/>
<path d="M586.437 545.923L575.119 548.036L570.462 540.33L567.925 549.379L537.907 554.982C536.468 555.251 534.954 555.164 533.584 554.736C532.215 554.307 531.062 553.559 530.295 552.6C529.528 551.64 529.186 550.521 529.32 549.404C529.453 548.288 530.055 547.233 531.037 546.394L550.923 529.396L548.257 521.225L573.842 517.657L586.437 545.923Z" fill="#2F2E41"/>
<path d="M466.537 548.565L455.744 545.232L457.977 536.93L448.883 543.114L420.258 534.276C418.886 533.853 417.728 533.108 416.955 532.152C416.182 531.196 415.833 530.078 415.959 528.961C416.085 527.844 416.68 526.787 417.657 525.944C418.634 525.101 419.942 524.516 421.389 524.275L450.693 519.391L454.898 511.599L478.356 520.108L466.537 548.565Z" fill="#2F2E41"/>
<path d="M428.951 321.405H420.109C410.602 321.397 401.487 318.536 394.764 313.451C388.042 308.366 384.26 301.472 384.249 294.28V293.909H464.811V294.28C464.8 301.472 461.018 308.366 454.296 313.451C447.573 318.536 438.458 321.397 428.951 321.405Z" fill="#E4E4E4"/>
<path d="M420.109 284.248C420.109 286.095 415.688 287.592 415.688 287.592C415.688 287.592 411.267 286.095 411.267 284.248C411.267 282.401 415.688 280.904 415.688 280.904C415.688 280.904 420.109 282.401 420.109 284.248Z" fill="#3F3D56"/>
<path d="M446.635 284.248C446.635 286.095 442.214 287.592 442.214 287.592C442.214 287.592 437.793 286.095 437.793 284.248C437.793 282.401 442.214 280.904 442.214 280.904C442.214 280.904 446.635 282.401 446.635 284.248Z" fill="#3F3D56"/>
<path d="M428.951 290.936C428.951 292.783 424.53 294.28 424.53 294.28C424.53 294.28 420.109 292.783 420.109 290.936C420.109 289.089 424.53 287.592 424.53 287.592C424.53 287.592 428.951 289.089 428.951 290.936Z" fill="#3F3D56"/>
<path d="M398.004 277.188C400.445 277.188 402.425 275.691 402.425 273.844C402.425 271.997 400.445 270.5 398.004 270.5C395.562 270.5 393.583 271.997 393.583 273.844C393.583 275.691 395.562 277.188 398.004 277.188Z" fill="#3F3D56"/>
<path d="M333.706 266.658L403.434 273.942C404.064 274.008 404.671 274.169 405.217 274.418C405.763 274.666 406.236 274.995 406.609 275.385C406.982 275.776 407.246 276.219 407.386 276.689C407.526 277.159 407.539 277.646 407.423 278.119C407.307 278.593 407.066 279.044 406.714 279.445C406.361 279.846 405.905 280.189 405.372 280.453C404.84 280.717 404.242 280.897 403.615 280.981C402.988 281.066 402.345 281.053 401.725 280.944L333.155 268.915C332.775 268.848 332.443 268.673 332.228 268.425C332.014 268.178 331.934 267.878 332.005 267.587C332.076 267.296 332.292 267.037 332.609 266.864C332.926 266.691 333.319 266.617 333.706 266.658Z" fill="#E4E4E4"/>
<path d="M418.437 100.481V1.52588e-05H409.595V100.481C397.514 101.315 386.281 105.534 378.102 112.311C369.922 119.087 365.386 127.932 365.385 137.108V147.14H396.332C396.332 150.688 398.195 154.09 401.512 156.599C404.828 159.107 409.326 160.517 414.016 160.517C418.706 160.517 423.204 159.107 426.521 156.599C429.837 154.09 431.7 150.688 431.7 147.14H462.648V137.108C462.646 127.932 458.111 119.087 449.931 112.311C441.751 105.534 430.518 101.315 418.437 100.481Z" fill="#F0F0F0"/>
<path d="M532.279 75.3608V1.52588e-05H525.648V75.3608C516.587 75.9862 508.162 79.1506 502.027 84.2331C495.893 89.3155 492.491 95.9488 492.49 102.831V110.355H515.7C515.7 113.016 517.098 115.568 519.585 117.449C522.072 119.33 525.446 120.387 528.963 120.387C532.481 120.387 535.855 119.33 538.342 117.449C540.829 115.568 542.227 113.016 542.227 110.355H565.437V102.831C565.436 95.9488 562.034 89.3155 555.899 84.2331C549.765 79.1506 541.34 75.9862 532.279 75.3608Z" fill="#F0F0F0"/>
<path d="M308.28 75.3608V1.52588e-05H301.648V75.3608C292.587 75.9862 284.163 79.1506 278.028 84.2331C271.893 89.3155 268.491 95.9488 268.49 102.831V110.355H291.701C291.701 113.016 293.098 115.568 295.585 117.449C298.073 119.33 301.446 120.387 304.964 120.387C308.481 120.387 311.855 119.33 314.342 117.449C316.83 115.568 318.227 113.016 318.227 110.355H341.437V102.831C341.436 95.9488 338.035 89.3155 331.9 84.2331C325.765 79.1506 317.34 75.9862 308.28 75.3608Z" fill="#F0F0F0"/>
<path d="M707.415 177.181C701.158 171.662 698.183 164.34 693.181 158.072C688.179 151.805 679.475 146.196 670.279 147.654C663.94 148.66 659.041 152.891 656.561 157.608C654.082 162.325 653.617 167.527 653.182 172.623C653.336 162.15 644.214 151.998 631.648 148.656C619.083 145.314 604.046 149.042 596.15 157.455C592.705 155.04 588.207 153.664 583.51 153.59C578.813 153.515 574.243 154.747 570.667 157.051C563.605 161.825 562.042 170.913 567.236 177.003C572.429 183.092 583.678 185.361 591.932 181.984L594.85 184.014C593.207 188.359 596.393 193.493 601.747 195.128C606.089 196.455 612.219 196.234 613.844 199.681C614.979 202.089 612.857 204.659 610.599 206.51C608.342 208.361 605.662 210.271 605.391 212.832C604.981 216.696 610.26 219.403 615.059 220.218C626.629 222.184 639.468 218.131 646.137 210.407C646.266 210.258 646.405 210.109 646.556 209.96C650.298 206.34 653.025 202.182 654.57 197.739C656.115 193.295 656.446 188.66 655.544 184.117C655.169 182.332 655.547 181.004 657.174 180.581C664.207 178.754 683.912 182.589 689.875 186.055C695.839 189.522 700.614 194.109 706.358 197.799C712.103 201.489 719.423 204.335 726.717 203.33C732.558 202.525 737.527 199.318 740.87 195.448C744.212 191.579 746.136 187.069 747.859 182.587C734.942 188.231 717.263 185.868 707.415 177.181Z" fill="#2F2E41"/>
</g>
<defs>
<clipPath id="clip0_1_2">
<rect width="878" height="557" fill="white"/>
</clipPath>
</defs>
</svg>
