<?xml version="1.0" encoding="UTF-8"?>
<!DOCTYPE svg PUBLIC "-//W3C//DTD SVG 1.1//EN" "http://www.w3.org/Graphics/SVG/1.1/DTD/svg11.dtd">
<svg xmlns="http://www.w3.org/2000/svg" version="1.1" width="1080px" height="221px" style="shape-rendering:geometricPrecision; text-rendering:geometricPrecision; image-rendering:optimizeQuality; fill-rule:evenodd; clip-rule:evenodd" xmlns:xlink="http://www.w3.org/1999/xlink">
<g><path style="opacity:0.988" fill="#eff9ed" d="M 469.5,14.5 C 472.556,24.0446 472.056,33.3779 468,42.5C 456.988,53.2738 445.155,54.2738 432.5,45.5C 422.799,32.8135 423.465,20.6468 434.5,9C 447.751,1.78134 459.418,3.61468 469.5,14.5 Z"/></g>
<g><path style="opacity:0.996" fill="#eff9ed" d="M 146.5,23.5 C 162.087,74.5975 178.087,125.597 194.5,176.5C 194.471,178.029 193.804,179.196 192.5,180C 179.171,180.5 165.837,180.667 152.5,180.5C 150.91,180.372 149.577,179.705 148.5,178.5C 146.701,174.304 145.368,169.971 144.5,165.5C 143.448,161.574 142.782,157.574 142.5,153.5C 125.82,153.167 109.153,153.501 92.5,154.5C 90.2158,162.473 87.5492,170.306 84.5,178C 71.7884,178.205 59.1217,178.705 46.5,179.5C 40.4271,179.931 38.2604,177.265 40,171.5C 57.6056,120.016 75.6056,68.6826 94,17.5C 110.093,16.3425 126.259,16.1758 142.5,17C 144.248,19.0129 145.582,21.1795 146.5,23.5 Z M 125.5,93.5 C 127.323,100.459 128.99,107.459 130.5,114.5C 126.833,114.5 123.167,114.5 119.5,114.5C 121.131,107.289 123.131,100.289 125.5,93.5 Z"/></g>
<g><path style="opacity:0.994" fill="#eff9ed" d="M 733.5,30.5 C 738.767,43.7043 744.6,56.7043 751,69.5C 756,81.5 761,93.5 766,105.5C 768.076,102.107 769.242,98.4402 769.5,94.5C 779.939,70.7885 791.606,47.6218 804.5,25C 819.5,24.3333 834.5,24.3333 849.5,25C 851.171,26.8425 852.171,29.0092 852.5,31.5C 851.732,32.2625 851.232,33.2625 851,34.5C 850.751,84.8396 850.085,135.173 849,185.5C 848.5,186 848,186.5 847.5,187C 835.505,187.5 823.505,187.667 811.5,187.5C 809.278,187.822 807.444,187.155 806,185.5C 805.383,169.157 805.55,152.824 806.5,136.5C 806.5,135.5 806.5,134.5 806.5,133.5C 807.002,121.128 808.002,108.795 809.5,96.5C 809.167,95.1667 808.833,93.8333 808.5,92.5C 800.387,112.061 791.72,131.395 782.5,150.5C 781.975,151.192 781.308,151.692 780.5,152C 770.506,152.5 760.506,152.666 750.5,152.5C 749.542,152.047 748.708,151.381 748,150.5C 743.785,141.409 739.618,132.409 735.5,123.5C 732.494,113.159 728.661,103.159 724,93.5C 724.5,123.491 724.5,153.491 724,183.5C 723.167,184.333 722.333,185.167 721.5,186C 709.838,186.5 698.171,186.667 686.5,186.5C 684.418,186.528 682.584,185.861 681,184.5C 680.754,132.165 681.087,79.832 682,27.5C 682.273,25.6711 683.107,24.1711 684.5,23C 699.528,22.1913 714.528,22.5246 729.5,24C 731.058,26.0519 732.392,28.2185 733.5,30.5 Z"/></g>
<g><path style="opacity:0.994" fill="#1f75d5" d="M 469.5,14.5 C 479.835,20.503 484.335,29.503 483,41.5C 480.418,52.9121 473.584,60.2455 462.5,63.5C 458.833,63.5 455.167,63.5 451.5,63.5C 441.962,60.9642 435.629,54.9642 432.5,45.5C 445.155,54.2738 456.988,53.2738 468,42.5C 472.056,33.3779 472.556,24.0446 469.5,14.5 Z"/></g>
<g><path style="opacity:0.986" fill="#1e74d5" d="M 852.5,31.5 C 857.46,31.0602 860.96,33.0602 863,37.5C 863.047,89.8388 862.38,142.172 861,194.5C 860.215,196.286 859.049,197.786 857.5,199C 844.167,199.667 830.833,199.667 817.5,199C 815.671,198.727 814.171,197.893 813,196.5C 811.851,193.607 811.351,190.607 811.5,187.5C 823.505,187.667 835.505,187.5 847.5,187C 848,186.5 848.5,186 849,185.5C 850.085,135.173 850.751,84.8396 851,34.5C 851.232,33.2625 851.732,32.2625 852.5,31.5 Z"/></g>
<g><path style="opacity:0.992" fill="#eff9ed" d="M 638.5,44.5 C 639.299,53.1557 639.966,61.8223 640.5,70.5C 644.234,70.6773 647.901,70.3439 651.5,69.5C 654.518,69.3354 657.518,69.502 660.5,70C 662.229,71.7889 662.896,73.9556 662.5,76.5C 661.721,85.4534 661.221,94.4534 661,103.5C 660.5,104 660,104.5 659.5,105C 653.175,105.5 646.842,105.666 640.5,105.5C 640.073,119.226 640.573,132.893 642,146.5C 644.591,150.048 648.091,151.382 652.5,150.5C 659.994,147.339 663.661,149.672 663.5,157.5C 663.666,165.84 663.5,174.173 663,182.5C 662.215,184.286 661.049,185.786 659.5,187C 641.278,191.188 624.612,188.021 609.5,177.5C 603.015,169.536 599.015,160.536 597.5,150.5C 597.5,150.167 597.5,149.833 597.5,149.5C 597.991,113.168 598.491,76.8343 599,40.5C 599.374,39.5838 599.874,38.7504 600.5,38C 612.167,37.3333 623.833,37.3333 635.5,38C 637.915,39.4653 638.915,41.632 638.5,44.5 Z"/></g>
<g><path style="opacity:0.688" fill="#1b72d6" d="M 638.5,44.5 C 642.803,43.7962 646.303,45.1295 649,48.5C 650.491,55.409 651.324,62.409 651.5,69.5C 647.901,70.3439 644.234,70.6773 640.5,70.5C 639.966,61.8223 639.299,53.1557 638.5,44.5 Z"/></g>
<g><path style="opacity:0.995" fill="#eff9ed" d="M 298.5,73.5 C 293.787,82.3819 288.453,90.8819 282.5,99C 280.5,99.6667 278.5,99.6667 276.5,99C 265.96,93.5036 255.127,92.3369 244,95.5C 243.104,98.025 243.604,100.192 245.5,102C 254.591,102.993 263.591,104.493 272.5,106.5C 272.842,107.338 273.508,107.672 274.5,107.5C 274.833,107.5 275.167,107.5 275.5,107.5C 276.209,108.404 277.209,108.737 278.5,108.5C 278.842,109.338 279.508,109.672 280.5,109.5C 285.757,112.749 290.757,116.415 295.5,120.5C 297.408,125.722 299.241,131.055 301,136.5C 302.888,165.951 289.055,181.784 259.5,184C 237.807,186.462 217.807,181.796 199.5,170C 195.936,166.548 195.602,162.715 198.5,158.5C 202.948,151.779 207.281,144.946 211.5,138C 213.167,137.333 214.833,137.333 216.5,138C 224.617,143.65 233.617,146.817 243.5,147.5C 247.846,147.666 252.179,147.499 256.5,147C 258.602,145.267 258.935,143.267 257.5,141C 248.583,138.416 239.583,136.082 230.5,134C 223.337,131.254 216.671,127.754 210.5,123.5C 201.918,113.01 199.085,101.01 202,87.5C 207.354,71.3884 218.52,62.2218 235.5,60C 256.489,56.4568 276.489,59.4568 295.5,69C 297.141,70.129 298.141,71.629 298.5,73.5 Z"/></g>
<g><path style="opacity:0.994" fill="#eff9ed" d="M 410.5,74.5 C 405.787,83.3819 400.453,91.8819 394.5,100C 392.5,100.667 390.5,100.667 388.5,100C 377.96,94.5036 367.127,93.3369 356,96.5C 355.104,99.025 355.604,101.192 357.5,103C 366.591,103.993 375.591,105.493 384.5,107.5C 384.842,108.338 385.508,108.672 386.5,108.5C 386.833,108.5 387.167,108.5 387.5,108.5C 388.209,109.404 389.209,109.737 390.5,109.5C 390.842,110.338 391.508,110.672 392.5,110.5C 397.757,113.749 402.757,117.415 407.5,121.5C 409.408,126.722 411.241,132.055 413,137.5C 415.566,160.898 405.733,176.065 383.5,183C 359.267,188.516 336.267,185.349 314.5,173.5C 313.564,172.026 312.23,171.026 310.5,170.5C 309.185,169.333 308.519,167.833 308.5,166C 309.777,161.952 311.443,158.118 313.5,154.5C 316.559,150.063 319.392,145.397 322,140.5C 322.956,139.106 324.289,138.439 326,138.5C 330.518,140.508 335.018,142.675 339.5,145C 344.708,146.802 350.041,147.969 355.5,148.5C 359.846,148.666 364.179,148.499 368.5,148C 370.602,146.267 370.935,144.267 369.5,142C 360.583,139.416 351.583,137.082 342.5,135C 335.337,132.254 328.671,128.754 322.5,124.5C 313.918,114.01 311.085,102.01 314,88.5C 319.108,72.0674 330.274,62.9007 347.5,61C 368.489,57.4568 388.489,60.4568 407.5,70C 409.141,71.129 410.141,72.629 410.5,74.5 Z"/></g>
<g><path style="opacity:0.994" fill="#eff9ed" d="M 583.5,77.5 C 578.423,85.7613 573.09,93.9279 567.5,102C 565.5,102.667 563.5,102.667 561.5,102C 550.96,96.5036 540.127,95.3369 529,98.5C 528.104,101.025 528.604,103.192 530.5,105C 539.591,105.993 548.591,107.493 557.5,109.5C 557.5,110.167 557.833,110.5 558.5,110.5C 559.167,110.5 559.833,110.5 560.5,110.5C 560.842,111.338 561.508,111.672 562.5,111.5C 562.833,111.5 563.167,111.5 563.5,111.5C 563.5,112.167 563.833,112.5 564.5,112.5C 564.833,112.5 565.167,112.5 565.5,112.5C 565.842,113.338 566.508,113.672 567.5,113.5C 567.842,114.338 568.508,114.672 569.5,114.5C 572.808,117.471 576.141,120.471 579.5,123.5C 588.637,138.646 588.803,153.979 580,169.5C 574.146,177.52 566.313,182.687 556.5,185C 531.738,190.706 508.405,187.206 486.5,174.5C 482.071,172.55 480.571,169.217 482,164.5C 486.457,156.416 491.291,148.582 496.5,141C 498.167,140.333 499.833,140.333 501.5,141C 508.083,145.792 515.417,148.626 523.5,149.5C 524.568,150.434 525.901,150.768 527.5,150.5C 532.179,150.666 536.845,150.499 541.5,150C 543.602,148.267 543.935,146.267 542.5,144C 533.583,141.416 524.583,139.082 515.5,137C 507.51,133.81 500.177,129.644 493.5,124.5C 486.831,114.18 484.665,102.846 487,90.5C 492.108,74.0674 503.274,64.9007 520.5,63C 539.868,59.7543 558.534,62.0876 576.5,70C 580.456,71.1181 582.789,73.6181 583.5,77.5 Z"/></g>
<g><path style="opacity:0.99" fill="#eff9ed" d="M 451.5,63.5 C 455.167,63.5 458.833,63.5 462.5,63.5C 468.008,62.6777 470.675,65.0111 470.5,70.5C 469.845,107.136 469.012,143.803 468,180.5C 456.037,182.198 443.87,183.198 431.5,183.5C 429.83,183.249 428.33,182.582 427,181.5C 426.312,142.825 426.646,104.159 428,65.5C 428.5,65 429,64.5 429.5,64C 436.826,63.5003 444.159,63.3337 451.5,63.5 Z"/></g>
<g><path style="opacity:0.994" fill="#eff9ed" d="M 964.5,81.5 C 968.445,88.7294 971.278,96.396 973,104.5C 973.812,116.546 973.646,128.546 972.5,140.5C 971.975,141.192 971.308,141.692 970.5,142C 950.158,142.635 929.825,142.468 909.5,141.5C 908.884,147.848 911.218,152.682 916.5,156C 918.265,156.64 919.932,156.473 921.5,155.5C 925.702,155.817 929.702,155.483 933.5,154.5C 939.937,153.679 946.271,152.346 952.5,150.5C 955.311,150.974 957.645,152.307 959.5,154.5C 959.833,155.167 960.167,155.833 960.5,156.5C 963.016,161.863 966.183,166.863 970,171.5C 970.667,173.167 970.667,174.833 970,176.5C 947.424,192.392 922.924,195.892 896.5,187C 889.952,184.234 883.952,180.734 878.5,176.5C 872.055,168.68 868.222,159.68 867,149.5C 866.333,136.167 866.333,122.833 867,109.5C 869.34,85.8267 882.173,71.66 905.5,67C 923.001,63.6431 939.668,65.9765 955.5,74C 958.69,76.3644 961.69,78.8644 964.5,81.5 Z M 932.5,112.5 C 933.684,113.688 933.684,114.855 932.5,116C 929.518,116.498 926.518,116.665 923.5,116.5C 925.343,112.991 928.343,111.657 932.5,112.5 Z M 933.5,154.5 C 929.702,155.483 925.702,155.817 921.5,155.5C 922.694,154.223 924.36,153.556 926.5,153.5C 928.883,153.637 931.217,153.971 933.5,154.5 Z"/></g>
<g><path style="opacity:0.99" fill="#2278d3" d="M 125.5,93.5 C 123.131,100.289 121.131,107.289 119.5,114.5C 114.562,115.392 109.562,115.726 104.5,115.5C 108.808,99.1352 113.308,82.8018 118,66.5C 121.586,75.1741 124.086,84.1741 125.5,93.5 Z"/></g>
<g><path style="opacity:0.99" fill="#1c75d4" d="M 298.5,73.5 C 301.913,74.6937 305.08,76.3603 308,78.5C 309.422,81.0301 309.755,83.6967 309,86.5C 304.119,95.0982 298.619,103.265 292.5,111C 288.339,111.667 284.339,111.167 280.5,109.5C 280.158,108.662 279.492,108.328 278.5,108.5C 277.791,107.596 276.791,107.263 275.5,107.5C 275.167,107.5 274.833,107.5 274.5,107.5C 274.158,106.662 273.492,106.328 272.5,106.5C 263.591,104.493 254.591,102.993 245.5,102C 243.604,100.192 243.104,98.025 244,95.5C 255.127,92.3369 265.96,93.5036 276.5,99C 278.5,99.6667 280.5,99.6667 282.5,99C 288.453,90.8819 293.787,82.3819 298.5,73.5 Z"/></g>
<g><path style="opacity:0.99" fill="#1d75d3" d="M 410.5,74.5 C 413.913,75.6937 417.08,77.3603 420,79.5C 421.422,82.0301 421.755,84.6967 421,87.5C 416.119,96.0982 410.619,104.265 404.5,112C 400.339,112.667 396.339,112.167 392.5,110.5C 392.158,109.662 391.492,109.328 390.5,109.5C 389.791,108.596 388.791,108.263 387.5,108.5C 387.167,108.5 386.833,108.5 386.5,108.5C 386.158,107.662 385.492,107.328 384.5,107.5C 375.591,105.493 366.591,103.993 357.5,103C 355.604,101.192 355.104,99.025 356,96.5C 367.127,93.3369 377.96,94.5036 388.5,100C 390.5,100.667 392.5,100.667 394.5,100C 400.453,91.8819 405.787,83.3819 410.5,74.5 Z"/></g>
<g><path style="opacity:0.987" fill="#2275d5" d="M 662.5,76.5 C 666.516,75.8999 670.016,76.8999 673,79.5C 674.592,89.7595 674.926,100.093 674,110.5C 673.5,115 671,117.5 666.5,118C 661.877,117.774 657.21,117.607 652.5,117.5C 652.5,128.5 652.5,139.5 652.5,150.5C 648.091,151.382 644.591,150.048 642,146.5C 640.573,132.893 640.073,119.226 640.5,105.5C 646.842,105.666 653.175,105.5 659.5,105C 660,104.5 660.5,104 661,103.5C 661.221,94.4534 661.721,85.4534 662.5,76.5 Z"/></g>
<g><path style="opacity:0.99" fill="#1d75d4" d="M 583.5,77.5 C 591.011,78.1691 594.178,82.1691 593,89.5C 588.119,98.0982 582.619,106.265 576.5,114C 574.19,114.497 571.857,114.663 569.5,114.5C 569.158,113.662 568.492,113.328 567.5,113.5C 567.158,112.662 566.492,112.328 565.5,112.5C 565.167,112.5 564.833,112.5 564.5,112.5C 563.833,112.5 563.5,112.167 563.5,111.5C 563.167,111.5 562.833,111.5 562.5,111.5C 562.158,110.662 561.492,110.328 560.5,110.5C 559.833,110.5 559.167,110.5 558.5,110.5C 557.833,110.5 557.5,110.167 557.5,109.5C 548.591,107.493 539.591,105.993 530.5,105C 528.604,103.192 528.104,101.025 529,98.5C 540.127,95.3369 550.96,96.5036 561.5,102C 563.5,102.667 565.5,102.667 567.5,102C 573.09,93.9279 578.423,85.7613 583.5,77.5 Z"/></g>
<g><path style="opacity:0.974" fill="#1d73d6" d="M 733.5,30.5 C 737.025,30.3459 739.859,31.6792 742,34.5C 752,54.1634 761.167,74.1634 769.5,94.5C 769.242,98.4402 768.076,102.107 766,105.5C 761,93.5 756,81.5 751,69.5C 744.6,56.7043 738.767,43.7043 733.5,30.5 Z"/></g>
<g><path style="opacity:0.98" fill="#1c74d5" d="M 735.5,123.5 C 736.136,135.469 736.47,147.469 736.5,159.5C 736.636,171.567 736.136,183.567 735,195.5C 733.829,196.893 732.329,197.727 730.5,198C 718.167,198.667 705.833,198.667 693.5,198C 687.665,196.326 685.332,192.493 686.5,186.5C 698.171,186.667 709.838,186.5 721.5,186C 722.333,185.167 723.167,184.333 724,183.5C 724.5,153.491 724.5,123.491 724,93.5C 728.661,103.159 732.494,113.159 735.5,123.5 Z"/></g>
<g><path style="opacity:0.993" fill="#2077d2" d="M 806.5,133.5 C 805.292,134.234 803.959,134.567 802.5,134.5C 802.719,135.675 802.386,136.675 801.5,137.5C 800.352,139.35 799.019,140.017 797.5,139.5C 799.078,140.298 800.744,140.798 802.5,141C 801.929,142.205 801.262,143.372 800.5,144.5C 799.685,142.724 798.518,142.057 797,142.5C 796.776,145.11 797.276,147.61 798.5,150C 796.299,150.825 794.466,150.325 793,148.5C 792.383,149.449 792.549,150.282 793.5,151C 791.488,154.933 789.154,158.766 786.5,162.5C 777.46,162.252 768.46,162.585 759.5,163.5C 757.61,163.703 756.11,163.037 755,161.5C 753.487,158.473 751.987,155.473 750.5,152.5C 760.506,152.666 770.506,152.5 780.5,152C 781.308,151.692 781.975,151.192 782.5,150.5C 791.72,131.395 800.387,112.061 808.5,92.5C 808.833,93.8333 809.167,95.1667 809.5,96.5C 808.002,108.795 807.002,121.128 806.5,133.5 Z"/></g>
<g><path style="opacity:0.989" fill="#1c75d4" d="M 964.5,81.5 C 974.895,87.6009 981.395,96.6009 984,108.5C 985.551,122.125 985.884,135.792 985,149.5C 984.167,151.667 982.667,153.167 980.5,154C 973.508,154.5 966.508,154.666 959.5,154.5C 957.645,152.307 955.311,150.974 952.5,150.5C 946.271,152.346 939.937,153.679 933.5,154.5C 931.217,153.971 928.883,153.637 926.5,153.5C 924.36,153.556 922.694,154.223 921.5,155.5C 919.932,156.473 918.265,156.64 916.5,156C 911.218,152.682 908.884,147.848 909.5,141.5C 929.825,142.468 950.158,142.635 970.5,142C 971.308,141.692 971.975,141.192 972.5,140.5C 973.646,128.546 973.812,116.546 973,104.5C 971.278,96.396 968.445,88.7294 964.5,81.5 Z"/></g>
<g><path style="opacity:0.995" fill="#2077d3" d="M 932.5,112.5 C 928.343,111.657 925.343,112.991 923.5,116.5C 918.881,117.314 914.214,117.647 909.5,117.5C 908.783,102.377 915.45,97.5439 929.5,103C 932.029,105.642 933.029,108.808 932.5,112.5 Z"/></g>
<g><path style="opacity:0.993" fill="#1c74d5" d="M 146.5,23.5 C 151.632,23.4769 155.132,25.8103 157,30.5C 170.771,73.3112 184.605,115.978 198.5,158.5C 195.602,162.715 195.936,166.548 199.5,170C 217.807,181.796 237.807,186.462 259.5,184C 289.055,181.784 302.888,165.951 301,136.5C 299.241,131.055 297.408,125.722 295.5,120.5C 307.785,128.399 313.785,139.733 313.5,154.5C 311.443,158.118 309.777,161.952 308.5,166C 308.519,167.833 309.185,169.333 310.5,170.5C 301.82,186.53 288.154,195.03 269.5,196C 246.49,198.497 225.49,193.33 206.5,180.5C 205.496,179.317 204.662,177.984 204,176.5C 203.595,178.775 204.095,180.775 205.5,182.5C 207.554,187.022 206.221,190.189 201.5,192C 187.833,192.667 174.167,192.667 160.5,192C 155.251,190.014 152.585,186.181 152.5,180.5C 165.837,180.667 179.171,180.5 192.5,180C 193.804,179.196 194.471,178.029 194.5,176.5C 178.087,125.597 162.087,74.5975 146.5,23.5 Z"/></g>
<g><path style="opacity:0.984" fill="#1c75d4" d="M 210.5,123.5 C 216.671,127.754 223.337,131.254 230.5,134C 239.583,136.082 248.583,138.416 257.5,141C 258.935,143.267 258.602,145.267 256.5,147C 252.179,147.499 247.846,147.666 243.5,147.5C 229.133,144.148 218.133,136.148 210.5,123.5 Z"/></g>
<g><path style="opacity:0.984" fill="#1c75d5" d="M 322.5,124.5 C 328.671,128.754 335.337,132.254 342.5,135C 351.583,137.082 360.583,139.416 369.5,142C 370.935,144.267 370.602,146.267 368.5,148C 364.179,148.499 359.846,148.666 355.5,148.5C 341.133,145.148 330.133,137.148 322.5,124.5 Z"/></g>
<g><path style="opacity:0.991" fill="#1c75d4" d="M 407.5,121.5 C 417.192,127.527 422.859,136.194 424.5,147.5C 424.956,151.111 424.289,154.444 422.5,157.5C 423.402,161.459 423.402,165.459 422.5,169.5C 420.388,177.13 416.054,183.297 409.5,188C 378.152,202.274 347.819,200.274 318.5,182C 315.679,179.859 314.346,177.025 314.5,173.5C 336.267,185.349 359.267,188.516 383.5,183C 405.733,176.065 415.566,160.898 413,137.5C 411.241,132.055 409.408,126.722 407.5,121.5 Z"/></g>
<g><path style="opacity:0.986" fill="#1e76d4" d="M 493.5,124.5 C 500.177,129.644 507.51,133.81 515.5,137C 524.583,139.082 533.583,141.416 542.5,144C 543.935,146.267 543.602,148.267 541.5,150C 536.845,150.499 532.179,150.666 527.5,150.5C 526.432,149.566 525.099,149.232 523.5,149.5C 509.892,145.564 499.892,137.231 493.5,124.5 Z"/></g>
<g><path style="opacity:0.991" fill="#1c74d5" d="M 579.5,123.5 C 589.089,129.744 595.089,138.41 597.5,149.5C 597.5,149.833 597.5,150.167 597.5,150.5C 598.845,176.988 586.512,192.822 560.5,198C 535.3,202.532 511.967,197.866 490.5,184C 487.38,181.592 486.047,178.426 486.5,174.5C 508.405,187.206 531.738,190.706 556.5,185C 566.313,182.687 574.146,177.52 580,169.5C 588.803,153.979 588.637,138.646 579.5,123.5 Z"/></g>
<g><path style="opacity:0.988" fill="#eff9ed" d="M 1027.5,154.5 C 1031.27,163.08 1031.44,171.747 1028,180.5C 1021.36,190.274 1012.19,193.774 1000.5,191C 997.324,190.111 994.324,188.945 991.5,187.5C 981.329,175.62 980.995,163.453 990.5,151C 1000.43,144.505 1010.76,143.839 1021.5,149C 1024.02,150.36 1026.02,152.193 1027.5,154.5 Z"/></g>
<g><path style="opacity:0.993" fill="#2276d4" d="M 144.5,165.5 C 142.167,165.5 139.833,165.5 137.5,165.5C 126.039,163.69 114.372,163.19 102.5,164C 101.954,166.874 101.62,170.041 101.5,173.5C 100.805,177.945 99.6384,182.278 98,186.5C 96.4571,188.378 94.6238,189.878 92.5,191C 78.1458,191.677 63.8125,191.344 49.5,190C 45.5364,187.349 44.5364,183.849 46.5,179.5C 59.1217,178.705 71.7884,178.205 84.5,178C 87.5492,170.306 90.2158,162.473 92.5,154.5C 109.153,153.501 125.82,153.167 142.5,153.5C 142.782,157.574 143.448,161.574 144.5,165.5 Z"/></g>
<g><path style="opacity:0.149" fill="#1d63ee" d="M 424.5,147.5 C 425.932,154.985 425.265,162.318 422.5,169.5C 423.402,165.459 423.402,161.459 422.5,157.5C 424.289,154.444 424.956,151.111 424.5,147.5 Z"/></g>
<g><path style="opacity:0.792" fill="#2074d5" d="M 470.5,70.5 C 477.561,70.3938 481.228,73.8938 481.5,81C 480.847,117.493 480.014,153.993 479,190.5C 478.065,193.102 476.232,194.602 473.5,195C 460.776,195.92 448.11,195.586 435.5,194C 431.952,191.409 430.618,187.909 431.5,183.5C 443.87,183.198 456.037,182.198 468,180.5C 469.012,143.803 469.845,107.136 470.5,70.5 Z"/></g>
<g><path style="opacity:0.753" fill="#1a6fdd" d="M 806.5,133.5 C 806.5,134.5 806.5,135.5 806.5,136.5C 802.259,145.478 797.593,154.311 792.5,163C 786.772,164.123 780.939,164.623 775,164.5C 769.656,164.499 764.489,164.166 759.5,163.5C 768.46,162.585 777.46,162.252 786.5,162.5C 789.154,158.766 791.488,154.933 793.5,151C 792.549,150.282 792.383,149.449 793,148.5C 794.466,150.325 796.299,150.825 798.5,150C 797.276,147.61 796.776,145.11 797,142.5C 798.518,142.057 799.685,142.724 800.5,144.5C 801.262,143.372 801.929,142.205 802.5,141C 800.744,140.798 799.078,140.298 797.5,139.5C 799.019,140.017 800.352,139.35 801.5,137.5C 802.386,136.675 802.719,135.675 802.5,134.5C 803.959,134.567 805.292,134.234 806.5,133.5 Z"/></g>
<g><path style="opacity:0.055" fill="#1368e9" d="M 137.5,165.5 C 126.495,165.333 115.495,165.5 104.5,166C 103.413,168.567 102.413,171.067 101.5,173.5C 101.62,170.041 101.954,166.874 102.5,164C 114.372,163.19 126.039,163.69 137.5,165.5 Z"/></g>
<g><path style="opacity:0.993" fill="#1c74d5" d="M 609.5,177.5 C 624.612,188.021 641.278,191.188 659.5,187C 661.049,185.786 662.215,184.286 663,182.5C 663.5,174.173 663.666,165.84 663.5,157.5C 668.423,155.752 672.256,157.085 675,161.5C 675.667,171.5 675.667,181.5 675,191.5C 674.573,195.527 672.406,198.027 668.5,199C 651.9,202.723 636.233,200.389 621.5,192C 616.533,187.876 612.533,183.042 609.5,177.5 Z"/></g>
<g><path style="opacity:0.979" fill="#1d75d5" d="M 1027.5,154.5 C 1037.67,159.007 1043.01,166.84 1043.5,178C 1040.31,197.531 1028.98,205.864 1009.5,203C 1001.19,200.523 995.189,195.356 991.5,187.5C 994.324,188.945 997.324,190.111 1000.5,191C 1012.19,193.774 1021.36,190.274 1028,180.5C 1031.44,171.747 1031.27,163.08 1027.5,154.5 Z"/></g>
<g><path style="opacity:0.989" fill="#1c75d5" d="M 960.5,156.5 C 962.655,156.372 964.655,156.872 966.5,158C 972.057,165.225 977.224,172.725 982,180.5C 982.86,184.952 981.36,188.452 977.5,191C 953.622,204.881 928.622,207.214 902.5,198C 892.116,193.447 884.116,186.28 878.5,176.5C 883.952,180.734 889.952,184.234 896.5,187C 922.924,195.892 947.424,192.392 970,176.5C 970.667,174.833 970.667,173.167 970,171.5C 966.183,166.863 963.016,161.863 960.5,156.5 Z"/></g>
<g><path style="opacity:0.004" fill="#0925ff" d="M 206.5,180.5 C 205.662,180.842 205.328,181.508 205.5,182.5C 204.095,180.775 203.595,178.775 204,176.5C 204.662,177.984 205.496,179.317 206.5,180.5 Z"/></g>
</svg>
