<?xml version="1.0" encoding="UTF-8"?>
<!DOCTYPE svg PUBLIC "-//W3C//DTD SVG 1.1//EN" "http://www.w3.org/Graphics/SVG/1.1/DTD/svg11.dtd">
<svg xmlns="http://www.w3.org/2000/svg" version="1.1" width="1080px" height="236px" style="shape-rendering:geometricPrecision; text-rendering:geometricPrecision; image-rendering:optimizeQuality; fill-rule:evenodd; clip-rule:evenodd" xmlns:xlink="http://www.w3.org/1999/xlink">
<g><path style="opacity:0.994" fill="#f0f9ed" d="M 489.5,19.5 C 495.116,32.4165 493.116,43.9165 483.5,54C 472.894,59.7845 462.227,59.9512 451.5,54.5C 439.843,41.6924 439.51,28.5257 450.5,15C 460.77,8.51814 471.436,7.85147 482.5,13C 485.33,14.728 487.663,16.8947 489.5,19.5 Z"/></g>
<g><path style="opacity:0.997" fill="#eff9ed" d="M 141.5,28.5 C 158.932,83.6286 176.265,138.795 193.5,194C 193.441,195.436 193.108,196.769 192.5,198C 177.661,198.169 162.994,198.669 148.5,199.5C 146.83,199.249 145.33,198.582 144,197.5C 142.496,192.148 140.996,186.815 139.5,181.5C 139.428,177.374 138.761,173.374 137.5,169.5C 119.5,169.5 101.5,169.5 83.5,169.5C 81.9024,178.654 79.2357,187.487 75.5,196C 61.4205,197.132 47.4205,197.965 33.5,198.5C 26.9707,198.729 24.804,195.729 27,189.5C 46.1973,134.908 65.1973,80.2417 84,25.5C 86.2596,22.6739 89.2596,21.3405 93,21.5C 107.817,22.2761 122.651,22.7761 137.5,23C 139.442,24.3819 140.775,26.2152 141.5,28.5 Z M 118.5,103.5 C 120.892,111.555 123.225,119.722 125.5,128C 120.845,128.499 116.179,128.666 111.5,128.5C 113.37,120.018 115.703,111.684 118.5,103.5 Z"/></g>
<g><path style="opacity:0.996" fill="#eff9ed" d="M 775.5,36.5 C 788.085,62.3394 799.585,88.6728 810,115.5C 810.667,116.833 811.333,116.833 812,115.5C 813.47,112.256 814.637,108.923 815.5,105.5C 826.332,80.0015 838.666,55.1682 852.5,31C 854.101,30.7266 855.601,30.2266 857,29.5C 871.759,30.3248 886.592,30.8248 901.5,31C 903.229,32.7889 903.896,34.9556 903.5,37.5C 903.025,92.8394 902.192,148.173 901,203.5C 900.5,204 900,204.5 899.5,205C 886.758,205.186 874.092,205.686 861.5,206.5C 859.473,206.662 857.473,206.495 855.5,206C 854.809,204.933 854.309,203.766 854,202.5C 854.271,185.514 854.438,168.514 854.5,151.5C 856.109,135.551 856.942,119.551 857,103.5C 848.083,125.164 838.249,146.33 827.5,167C 816.757,167.19 806.09,167.69 795.5,168.5C 793.91,168.372 792.577,167.705 791.5,166.5C 786.949,156.815 782.616,147.149 778.5,137.5C 774.88,125.47 770.38,113.804 765,102.5C 766.357,135.115 766.691,167.782 766,200.5C 765.535,201.931 764.701,203.097 763.5,204C 750.758,204.186 738.092,204.686 725.5,205.5C 722.802,205.55 720.636,204.55 719,202.5C 718.861,145.16 719.527,87.8265 721,30.5C 721.5,30 722,29.5 722.5,29C 737.833,28.3333 753.167,28.3333 768.5,29C 772.395,30.0609 774.728,32.5609 775.5,36.5 Z"/></g>
<g><path style="opacity:0.993" fill="#1c75d4" d="M 489.5,19.5 C 497.422,22.9303 502.255,28.9303 504,37.5C 506.697,54.6204 499.864,65.787 483.5,71C 468.441,73.6394 457.774,68.1394 451.5,54.5C 462.227,59.9512 472.894,59.7845 483.5,54C 493.116,43.9165 495.116,32.4165 489.5,19.5 Z"/></g>
<g><path style="opacity:0.995" fill="#eff9ed" d="M 672.5,51.5 C 673.563,60.8024 674.23,70.1357 674.5,79.5C 678.566,79.693 682.566,79.3597 686.5,78.5C 689.941,78.3011 693.274,78.8011 696.5,80C 698.229,81.7889 698.896,83.9556 698.5,86.5C 698.948,96.2726 698.448,105.939 697,115.5C 696.5,116 696,116.5 695.5,117C 688.508,117.5 681.508,117.666 674.5,117.5C 674.071,131.559 674.571,145.559 676,159.5C 678.347,165.002 682.514,167.336 688.5,166.5C 690.734,166.62 692.901,166.287 695,165.5C 699.649,166.594 701.483,169.26 700.5,173.5C 699.67,182.658 699.17,191.991 699,201.5C 697.833,202.667 696.667,203.833 695.5,205C 683.087,207.223 670.754,206.89 658.5,204C 652.994,201.745 647.66,199.245 642.5,196.5C 634.855,188.212 630.189,178.546 628.5,167.5C 628.5,166.833 628.5,166.167 628.5,165.5C 628.718,125.969 629.384,86.4693 630.5,47C 630.905,46.0546 631.572,45.3879 632.5,45C 644.833,44.3333 657.167,44.3333 669.5,45C 671.919,46.5088 672.919,48.6755 672.5,51.5 Z"/></g>
<g><path style="opacity:0.993" fill="#1d74d3" d="M 903.5,37.5 C 909.242,36.4556 913.409,38.4556 916,43.5C 916.136,92.5083 915.636,141.508 914.5,190.5C 913.963,199.123 912.963,207.789 911.5,216.5C 909.241,218.755 906.408,219.755 903,219.5C 890.847,218.761 878.68,218.261 866.5,218C 861.937,215.575 860.271,211.742 861.5,206.5C 874.092,205.686 886.758,205.186 899.5,205C 900,204.5 900.5,204 901,203.5C 902.192,148.173 903.025,92.8394 903.5,37.5 Z"/></g>
<g><path style="opacity:0.627" fill="#1c75d5" d="M 775.5,36.5 C 780.28,35.6409 783.78,37.3075 786,41.5C 796.669,62.5004 806.502,83.8337 815.5,105.5C 814.637,108.923 813.47,112.256 812,115.5C 811.333,116.833 810.667,116.833 810,115.5C 799.585,88.6728 788.085,62.3394 775.5,36.5 Z"/></g>
<g><path style="opacity:0.992" fill="#1f75d5" d="M 672.5,51.5 C 678.414,50.9525 682.581,53.2859 685,58.5C 685.831,65.146 686.331,71.8126 686.5,78.5C 682.566,79.3597 678.566,79.693 674.5,79.5C 674.23,70.1357 673.563,60.8024 672.5,51.5 Z"/></g>
<g><path style="opacity:0.995" fill="#f0f9ed" d="M 304.5,82.5 C 299.9,92.8637 293.9,102.364 286.5,111C 279.385,108.635 272.052,106.635 264.5,105C 258.833,104.333 253.167,104.333 247.5,105C 244.689,108.294 245.022,111.294 248.5,114C 254.077,115.406 259.743,116.239 265.5,116.5C 277.602,119.05 288.602,124.05 298.5,131.5C 311.325,149.053 311.825,167.053 300,185.5C 290.665,195.396 279.165,200.896 265.5,202C 251.303,203.362 237.303,202.362 223.5,199C 216.157,195.994 208.823,192.994 201.5,190C 199.667,188.167 197.833,186.333 196,184.5C 195.309,180.979 195.809,177.645 197.5,174.5C 201.559,168.734 205.392,162.734 209,156.5C 210.182,154.643 211.849,153.643 214,153.5C 220.764,156.464 227.597,159.298 234.5,162C 240.912,163.904 247.246,164.404 253.5,163.5C 256.862,163.93 259.695,162.93 262,160.5C 262.63,158.097 261.797,156.263 259.5,155C 251.201,152.873 242.868,150.873 234.5,149C 227.029,146.096 219.695,142.93 212.5,139.5C 198.53,124.333 196.03,107.333 205,88.5C 213.158,76.9987 224.325,70.4987 238.5,69C 261.399,65.4467 283.065,69.1133 303.5,80C 304.252,80.6708 304.586,81.5041 304.5,82.5 Z"/></g>
<g><path style="opacity:0.995" fill="#eff9ed" d="M 425.5,84.5 C 420.627,94.4156 414.627,103.582 407.5,112C 400.385,109.635 393.052,107.635 385.5,106C 379.833,105.333 374.167,105.333 368.5,106C 365.689,109.294 366.022,112.294 369.5,115C 376.456,116.411 383.456,117.578 390.5,118.5C 401.529,121.348 411.529,126.348 420.5,133.5C 431.567,149.561 432.4,166.227 423,183.5C 413.811,195.348 401.644,201.848 386.5,203C 371.202,204.624 356.202,203.29 341.5,199C 335.583,196.205 329.583,193.705 323.5,191.5C 321.483,190.471 319.483,189.471 317.5,188.5C 316.986,186.634 316.32,184.8 315.5,183C 317.391,178.72 319.391,174.553 321.5,170.5C 324.807,166.574 327.64,162.24 330,157.5C 331.182,155.643 332.849,154.643 335,154.5C 341.764,157.464 348.597,160.298 355.5,163C 361.419,164.441 367.419,165.274 373.5,165.5C 377.057,165.089 380.224,163.756 383,161.5C 383.63,159.097 382.797,157.263 380.5,156C 372.201,153.873 363.868,151.873 355.5,150C 348.024,147.094 340.691,143.927 333.5,140.5C 319.537,125.375 317.037,108.375 326,89.5C 334.158,77.9987 345.325,71.4987 359.5,70C 382.399,66.4467 404.065,70.1133 424.5,81C 425.337,82.0113 425.67,83.1779 425.5,84.5 Z"/></g>
<g><path style="opacity:0.995" fill="#f0f9ed" d="M 613.5,86.5 C 607.793,96.073 601.46,105.24 594.5,114C 587.385,111.635 580.052,109.635 572.5,108C 566.833,107.333 561.167,107.333 555.5,108C 552.689,111.294 553.022,114.294 556.5,117C 563.474,118.385 570.474,119.551 577.5,120.5C 578.568,121.434 579.901,121.768 581.5,121.5C 591.487,124.661 600.487,129.661 608.5,136.5C 618.637,152.475 619.137,168.809 610,185.5C 600.811,197.348 588.644,203.848 573.5,205C 559.303,206.362 545.303,205.362 531.5,202C 524.23,198.86 516.897,196.026 509.5,193.5C 507.849,192.03 506.015,190.697 504,189.5C 502.699,187.635 502.365,185.635 503,183.5C 507.861,174.28 513.361,165.446 519.5,157C 521.167,156.333 522.833,156.333 524.5,157C 535.238,163.635 546.905,167.135 559.5,167.5C 563.435,167.218 566.935,165.885 570,163.5C 570.63,161.097 569.797,159.263 567.5,158C 549.292,155.657 532.625,149.49 517.5,139.5C 506.134,124.548 504.634,108.548 513,91.5C 521.158,79.9987 532.325,73.4987 546.5,72C 569.399,68.4467 591.065,72.1133 611.5,83C 612.305,84.1127 612.972,85.2794 613.5,86.5 Z"/></g>
<g><path style="opacity:0.993" fill="#eff9ed" d="M 490.5,80.5 C 489.684,119.471 489.184,158.471 489,197.5C 488.535,198.931 487.701,200.097 486.5,201C 473.993,201.169 461.66,201.669 449.5,202.5C 447.418,202.528 445.584,201.861 444,200.5C 443.302,158.826 443.636,117.159 445,75.5C 445.5,74.3333 446.333,73.5 447.5,73C 459.833,72.3333 472.167,72.3333 484.5,73C 489.273,73.2733 491.273,75.7733 490.5,80.5 Z"/></g>
<g><path style="opacity:0.996" fill="#f0f9ed" d="M 1024.5,91.5 C 1029.44,98.8086 1032.94,106.809 1035,115.5C 1035.67,128.833 1035.67,142.167 1035,155.5C 1034.5,156 1034,156.5 1033.5,157C 1011.17,157.5 988.836,157.667 966.5,157.5C 965.853,167.518 970.52,172.851 980.5,173.5C 987.147,173.669 993.48,172.669 999.5,170.5C 1004.03,169.321 1008.53,167.988 1013,166.5C 1015.54,167.205 1017.71,168.539 1019.5,170.5C 1019.93,171.71 1020.6,172.71 1021.5,173.5C 1024.41,178.311 1027.58,182.978 1031,187.5C 1032.37,189.695 1032.71,192.029 1032,194.5C 1012.71,208.363 991.21,213.53 967.5,210C 962.342,209.281 957.342,207.948 952.5,206C 946.896,202.859 941.229,200.026 935.5,197.5C 927.5,189.499 922.666,179.832 921,168.5C 920.333,152.5 920.333,136.5 921,120.5C 924.667,95.8326 938.833,81.3326 963.5,77C 982.109,73.7001 999.775,76.3667 1016.5,85C 1019.36,87.0308 1022.02,89.1975 1024.5,91.5 Z M 992.5,125.5 C 992.5,127.167 992.5,128.833 992.5,130.5C 988.833,130.5 985.167,130.5 981.5,130.5C 981.916,128.248 983.249,126.748 985.5,126C 987.81,125.503 990.143,125.337 992.5,125.5 Z M 999.5,170.5 C 993.48,172.669 987.147,173.669 980.5,173.5C 980.196,172.85 979.863,172.183 979.5,171.5C 986.134,170.503 992.8,170.17 999.5,170.5 Z"/></g>
<g><path style="opacity:0.995" fill="#2277d3" d="M 118.5,103.5 C 115.703,111.684 113.37,120.018 111.5,128.5C 106.5,128.5 101.5,128.5 96.5,128.5C 101.102,110.312 106.269,92.3124 112,74.5C 115.237,83.923 117.404,93.5897 118.5,103.5 Z"/></g>
<g><path style="opacity:0.99" fill="#1f73d5" d="M 490.5,80.5 C 495.635,79.4262 499.468,81.0928 502,85.5C 502.333,127.213 501.666,168.88 500,210.5C 498.786,212.049 497.286,213.215 495.5,214C 481.444,214.928 467.444,214.595 453.5,213C 449.952,210.409 448.618,206.909 449.5,202.5C 461.66,201.669 473.993,201.169 486.5,201C 487.701,200.097 488.535,198.931 489,197.5C 489.184,158.471 489.684,119.471 490.5,80.5 Z"/></g>
<g><path style="opacity:0.996" fill="#1d74d4" d="M 304.5,82.5 C 317.608,85.0349 320.442,91.7016 313,102.5C 308.5,109 304,115.5 299.5,122C 298.271,122.781 296.938,123.281 295.5,123.5C 286.014,118.962 276.014,116.628 265.5,116.5C 259.743,116.239 254.077,115.406 248.5,114C 245.022,111.294 244.689,108.294 247.5,105C 253.167,104.333 258.833,104.333 264.5,105C 272.052,106.635 279.385,108.635 286.5,111C 293.9,102.364 299.9,92.8637 304.5,82.5 Z"/></g>
<g><path style="opacity:0.994" fill="#1b74d4" d="M 698.5,86.5 C 701.187,86.3359 703.854,86.5026 706.5,87C 708.667,87.8333 710.167,89.3333 711,91.5C 711.912,103.225 711.579,114.892 710,126.5C 708.871,128.141 707.371,129.141 705.5,129.5C 699.5,129.5 693.5,129.5 687.5,129.5C 687.5,130.5 687.5,131.5 687.5,132.5C 687.189,143.914 687.523,155.248 688.5,166.5C 682.514,167.336 678.347,165.002 676,159.5C 674.571,145.559 674.071,131.559 674.5,117.5C 681.508,117.666 688.508,117.5 695.5,117C 696,116.5 696.5,116 697,115.5C 698.448,105.939 698.948,96.2726 698.5,86.5 Z"/></g>
<g><path style="opacity:0.994" fill="#1d75d3" d="M 425.5,84.5 C 438.608,87.0349 441.442,93.7016 434,104.5C 429.5,111 425,117.5 420.5,124C 419.271,124.781 417.938,125.281 416.5,125.5C 408.253,121.605 399.586,119.272 390.5,118.5C 383.456,117.578 376.456,116.411 369.5,115C 366.022,112.294 365.689,109.294 368.5,106C 374.167,105.333 379.833,105.333 385.5,106C 393.052,107.635 400.385,109.635 407.5,112C 414.627,103.582 420.627,94.4156 425.5,84.5 Z"/></g>
<g><path style="opacity:0.994" fill="#1d75d4" d="M 613.5,86.5 C 615.741,87.6207 618.075,88.7874 620.5,90C 622.871,91.7432 624.205,94.0766 624.5,97C 619.794,106.055 614.627,114.888 609,123.5C 607.38,125.726 605.214,127.06 602.5,127.5C 595.839,124.279 588.839,122.279 581.5,121.5C 580.432,120.566 579.099,120.232 577.5,120.5C 570.474,119.551 563.474,118.385 556.5,117C 553.022,114.294 552.689,111.294 555.5,108C 561.167,107.333 566.833,107.333 572.5,108C 580.052,109.635 587.385,111.635 594.5,114C 601.46,105.24 607.793,96.073 613.5,86.5 Z"/></g>
<g><path style="opacity:0.994" fill="#1d73d4" d="M 778.5,137.5 C 779.048,151.49 779.382,165.49 779.5,179.5C 779.634,190.901 779.134,202.235 778,213.5C 776.786,215.049 775.286,216.215 773.5,217C 760.167,217.667 746.833,217.667 733.5,217C 727.26,215.695 724.594,211.862 725.5,205.5C 738.092,204.686 750.758,204.186 763.5,204C 764.701,203.097 765.535,201.931 766,200.5C 766.691,167.782 766.357,135.115 765,102.5C 770.38,113.804 774.88,125.47 778.5,137.5 Z"/></g>
<g><path style="opacity:0.993" fill="#1f77d3" d="M 854.5,151.5 C 849.991,160.684 845.324,169.85 840.5,179C 838.913,179.862 837.246,180.529 835.5,181C 824.845,180.928 814.178,180.595 803.5,180C 799.236,177.314 796.569,173.481 795.5,168.5C 806.09,167.69 816.757,167.19 827.5,167C 838.249,146.33 848.083,125.164 857,103.5C 856.942,119.551 856.109,135.551 854.5,151.5 Z"/></g>
<g><path style="opacity:0.99" fill="#1f75d4" d="M 1024.5,91.5 C 1034.06,96.555 1040.9,104.222 1045,114.5C 1049.7,131.585 1050.7,148.918 1048,166.5C 1046.83,167.667 1045.67,168.833 1044.5,170C 1036.17,170.5 1027.84,170.666 1019.5,170.5C 1017.71,168.539 1015.54,167.205 1013,166.5C 1008.53,167.988 1004.03,169.321 999.5,170.5C 992.8,170.17 986.134,170.503 979.5,171.5C 979.863,172.183 980.196,172.85 980.5,173.5C 970.52,172.851 965.853,167.518 966.5,157.5C 988.836,157.667 1011.17,157.5 1033.5,157C 1034,156.5 1034.5,156 1035,155.5C 1035.67,142.167 1035.67,128.833 1035,115.5C 1032.94,106.809 1029.44,98.8086 1024.5,91.5 Z"/></g>
<g><path style="opacity:0.993" fill="#1e77d2" d="M 992.5,125.5 C 990.143,125.337 987.81,125.503 985.5,126C 983.249,126.748 981.916,128.248 981.5,130.5C 976.5,130.5 971.5,130.5 966.5,130.5C 965.323,115.272 971.99,109.772 986.5,114C 990.597,116.716 992.597,120.549 992.5,125.5 Z"/></g>
<g><path style="opacity:0.012" fill="#054bf8" d="M 705.5,129.5 C 699.401,129.923 693.401,130.923 687.5,132.5C 687.5,131.5 687.5,130.5 687.5,129.5C 693.5,129.5 699.5,129.5 705.5,129.5 Z"/></g>
<g><path style="opacity:0.99" fill="#1c74d5" d="M 141.5,28.5 C 146.382,28.175 149.882,30.175 152,34.5C 167.077,81.2313 182.244,127.898 197.5,174.5C 195.809,177.645 195.309,180.979 196,184.5C 197.833,186.333 199.667,188.167 201.5,190C 208.823,192.994 216.157,195.994 223.5,199C 237.303,202.362 251.303,203.362 265.5,202C 279.165,200.896 290.665,195.396 300,185.5C 311.825,167.053 311.325,149.053 298.5,131.5C 314.602,139.351 322.268,152.351 321.5,170.5C 319.391,174.553 317.391,178.72 315.5,183C 316.32,184.8 316.986,186.634 317.5,188.5C 308.502,204.023 294.836,212.523 276.5,214C 250.231,217.64 226.397,211.807 205,196.5C 205.003,198.856 205.503,201.189 206.5,203.5C 206.139,206.692 204.472,208.859 201.5,210C 186.5,210.667 171.5,210.667 156.5,210C 151.56,208.307 148.893,204.807 148.5,199.5C 162.994,198.669 177.661,198.169 192.5,198C 193.108,196.769 193.441,195.436 193.5,194C 176.265,138.795 158.932,83.6286 141.5,28.5 Z"/></g>
<g><path style="opacity:0.991" fill="#1d74d4" d="M 420.5,133.5 C 434.8,141.155 442.134,153.155 442.5,169.5C 440.956,197.88 425.956,213.38 397.5,216C 373.988,219.193 351.988,214.86 331.5,203C 327.42,200.589 324.42,197.256 322.5,193C 323.056,192.617 323.389,192.117 323.5,191.5C 329.583,193.705 335.583,196.205 341.5,199C 356.202,203.29 371.202,204.624 386.5,203C 401.644,201.848 413.811,195.348 423,183.5C 432.4,166.227 431.567,149.561 420.5,133.5 Z"/></g>
<g><path style="opacity:0.979" fill="#1e74d4" d="M 333.5,140.5 C 340.691,143.927 348.024,147.094 355.5,150C 363.868,151.873 372.201,153.873 380.5,156C 382.797,157.263 383.63,159.097 383,161.5C 380.224,163.756 377.057,165.089 373.5,165.5C 359.003,162.667 346.503,156 336,145.5C 334.906,143.922 334.072,142.255 333.5,140.5 Z"/></g>
<g><path style="opacity:0.952" fill="#1f74d4" d="M 212.5,139.5 C 219.695,142.93 227.029,146.096 234.5,149C 242.868,150.873 251.201,152.873 259.5,155C 261.797,156.263 262.63,158.097 262,160.5C 259.695,162.93 256.862,163.93 253.5,163.5C 243.714,161.292 234.38,157.792 225.5,153C 220.29,149.291 215.957,144.791 212.5,139.5 Z"/></g>
<g><path style="opacity:0.783" fill="#1e73d4" d="M 517.5,139.5 C 532.625,149.49 549.292,155.657 567.5,158C 569.797,159.263 570.63,161.097 570,163.5C 566.935,165.885 563.435,167.218 559.5,167.5C 545.003,164.667 532.503,158 522,147.5C 520.235,144.968 518.735,142.301 517.5,139.5 Z"/></g>
<g><path style="opacity:0.99" fill="#1d74d4" d="M 608.5,136.5 C 619.406,143.333 626.073,153 628.5,165.5C 628.5,166.167 628.5,166.833 628.5,167.5C 629.033,194.788 616.033,211.288 589.5,217C 562.613,222.131 537.613,217.464 514.5,203C 511.701,200.877 509.701,198.21 508.5,195C 509.056,194.617 509.389,194.117 509.5,193.5C 516.897,196.026 524.23,198.86 531.5,202C 545.303,205.362 559.303,206.362 573.5,205C 588.644,203.848 600.811,197.348 610,185.5C 619.137,168.809 618.637,152.475 608.5,136.5 Z"/></g>
<g><path style="opacity:0.99" fill="#1d75d3" d="M 139.5,181.5 C 133.5,181.5 127.5,181.5 121.5,181.5C 112.682,180.507 103.682,180.173 94.5,180.5C 94.5,181.5 94.5,182.5 94.5,183.5C 92.9838,190.229 91.1504,196.896 89,203.5C 87.7402,206.428 85.5735,208.261 82.5,209C 67.1457,209.708 51.8124,209.374 36.5,208C 32.9899,205.51 31.9899,202.344 33.5,198.5C 47.4205,197.965 61.4205,197.132 75.5,196C 79.2357,187.487 81.9024,178.654 83.5,169.5C 101.5,169.5 119.5,169.5 137.5,169.5C 138.761,173.374 139.428,177.374 139.5,181.5 Z"/></g>
<g><path style="opacity:0.988" fill="#1c74d5" d="M 700.5,173.5 C 703.187,173.336 705.854,173.503 708.5,174C 710.333,174.5 711.5,175.667 712,177.5C 712.667,188.833 712.667,200.167 712,211.5C 711.167,215 709,217.167 705.5,218C 685.911,222.722 667.911,219.389 651.5,208C 647.888,204.59 644.888,200.756 642.5,196.5C 647.66,199.245 652.994,201.745 658.5,204C 670.754,206.89 683.087,207.223 695.5,205C 696.667,203.833 697.833,202.667 699,201.5C 699.17,191.991 699.67,182.658 700.5,173.5 Z"/></g>
<g><path style="opacity:0.012" fill="#0354fe" d="M 121.5,181.5 C 112.235,180.905 103.235,181.572 94.5,183.5C 94.5,182.5 94.5,181.5 94.5,180.5C 103.682,180.173 112.682,180.507 121.5,181.5 Z"/></g>
<g><path style="opacity:0.985" fill="#1d75d4" d="M 1021.5,173.5 C 1024.76,173.014 1027.42,174.014 1029.5,176.5C 1034.53,183.027 1039.36,189.693 1044,196.5C 1046.78,202.044 1045.61,206.544 1040.5,210C 1018.03,223.747 994.029,227.414 968.5,221C 954.292,217.572 943.292,209.739 935.5,197.5C 941.229,200.026 946.896,202.859 952.5,206C 957.342,207.948 962.342,209.281 967.5,210C 991.21,213.53 1012.71,208.363 1032,194.5C 1032.71,192.029 1032.37,189.695 1031,187.5C 1027.58,182.978 1024.41,178.311 1021.5,173.5 Z"/></g>
<g><path style="opacity:0.082" fill="#1668f3" d="M 914.5,190.5 C 914.666,198.174 914.5,205.841 914,213.5C 913.623,214.942 912.79,215.942 911.5,216.5C 912.963,207.789 913.963,199.123 914.5,190.5 Z"/></g>
</svg>
