<?xml version="1.0" encoding="UTF-8"?>
<!DOCTYPE svg PUBLIC "-//W3C//DTD SVG 1.1//EN" "http://www.w3.org/Graphics/SVG/1.1/DTD/svg11.dtd">
<svg xmlns="http://www.w3.org/2000/svg" version="1.1" width="896px" height="286px" style="shape-rendering:geometricPrecision; text-rendering:geometricPrecision; image-rendering:optimizeQuality; fill-rule:evenodd; clip-rule:evenodd" xmlns:xlink="http://www.w3.org/1999/xlink">
<g><path style="opacity:0.986" fill="#f0f9ed" d="M 672.5,26.5 C 673.792,31.4267 674.792,36.4267 675.5,41.5C 673.085,61.0527 662.085,68.8861 642.5,65C 640.323,63.7978 637.989,63.2978 635.5,63.5C 622.578,49.9607 622.244,36.1273 634.5,22C 643.401,17.2757 652.734,16.2757 662.5,19C 666.3,20.9789 669.634,23.4789 672.5,26.5 Z"/></g>
<g><path style="opacity:0.993" fill="#f0f9ed" d="M 159.5,51.5 C 159.5,52.1667 159.5,52.8333 159.5,53.5C 151.754,64.1117 144.087,74.945 136.5,86C 134.5,86.6667 132.5,86.6667 130.5,86C 114.119,76.4228 96.7857,73.7561 78.5,78C 74.1168,83.3187 74.7835,87.9854 80.5,92C 83.4318,92.9533 86.4318,93.4533 89.5,93.5C 102.913,97.0268 116.246,101.193 129.5,106C 137.363,109.759 144.696,114.259 151.5,119.5C 152.568,123.443 154.402,127.11 157,130.5C 168.347,178.184 149.514,204.684 100.5,210C 76.3596,213.043 54.3596,207.709 34.5,194C 32.8659,193.506 31.1992,193.34 29.5,193.5C 27.5455,190.716 25.0455,188.383 22,186.5C 21.3333,184.167 21.3333,181.833 22,179.5C 28.3333,170.167 34.6667,160.833 41,151.5C 43.1414,148.509 45.9748,147.342 49.5,148C 64.8461,159.782 82.1794,165.115 101.5,164C 105.381,163.393 108.714,161.726 111.5,159C 111.272,158.601 110.938,158.435 110.5,158.5C 112.243,156.874 112.743,154.874 112,152.5C 110.127,150.291 107.96,148.458 105.5,147C 93.5853,143.416 81.5853,140.083 69.5,137C 60.5926,133.88 52.2593,129.713 44.5,124.5C 28.8058,110.25 22.9725,92.5834 27,71.5C 32.5871,51.7509 45.4205,39.2509 65.5,34C 97.9777,25.3585 128.311,30.0251 156.5,48C 157.71,49.0391 158.71,50.2058 159.5,51.5 Z"/></g>
<g><path style="opacity:0.995" fill="#2276d4" d="M 672.5,26.5 C 684.69,32.881 690.023,42.881 688.5,56.5C 687.435,58.9677 686.768,61.6343 686.5,64.5C 685.662,64.8417 685.328,65.5084 685.5,66.5C 675.084,79.7981 662.084,82.9647 646.5,76C 641.566,72.9021 637.899,68.7354 635.5,63.5C 637.989,63.2978 640.323,63.7978 642.5,65C 662.085,68.8861 673.085,61.0527 675.5,41.5C 674.792,36.4267 673.792,31.4267 672.5,26.5 Z"/></g>
<g><path style="opacity:0.856" fill="#2075d4" d="M 757.5,37.5 C 762.67,37.6671 766.503,40.0004 769,44.5C 769.792,56.5458 769.626,68.5458 768.5,80.5C 763.86,79.9749 759.527,80.6416 755.5,82.5C 752.505,82.2938 749.838,82.9605 747.5,84.5C 741.862,85.2197 736.196,85.553 730.5,85.5C 729.115,78.8916 731.115,73.725 736.5,70C 742.748,69.8117 748.915,69.3117 755,68.5C 756.166,58.2195 756.999,47.8861 757.5,37.5 Z"/></g>
<g><path style="opacity:0.996" fill="#2378d3" d="M 159.5,53.5 C 162.408,54.1593 162.742,54.9926 160.5,56C 161.427,58.9695 163.427,60.8028 166.5,61.5C 160.137,70.6978 153.97,80.0311 148,89.5C 148.305,91.4432 148.305,93.4432 148,95.5C 147.667,95.8333 147.333,96.1667 147,96.5C 146.632,95.09 145.799,94.09 144.5,93.5C 141.799,94.4663 139.132,95.4663 136.5,96.5C 122.083,89.8748 107.083,88.0415 91.5,91C 90.6195,91.7083 89.9528,92.5416 89.5,93.5C 86.4318,93.4533 83.4318,92.9533 80.5,92C 74.7835,87.9854 74.1168,83.3187 78.5,78C 96.7857,73.7561 114.119,76.4228 130.5,86C 132.5,86.6667 134.5,86.6667 136.5,86C 144.087,74.945 151.754,64.1117 159.5,53.5 Z"/></g>
<g><path style="opacity:0.772" fill="#1d6fd8" d="M 159.5,51.5 C 165.968,53.0462 170.301,56.8795 172.5,63C 166.076,75.7647 158.409,87.7647 149.5,99C 144.566,101.182 140.233,100.349 136.5,96.5C 139.132,95.4663 141.799,94.4663 144.5,93.5C 145.799,94.09 146.632,95.09 147,96.5C 147.333,96.1667 147.667,95.8333 148,95.5C 148.305,93.4432 148.305,91.4432 148,89.5C 153.97,80.0311 160.137,70.6978 166.5,61.5C 163.427,60.8028 161.427,58.9695 160.5,56C 162.742,54.9926 162.408,54.1593 159.5,53.5C 159.5,52.8333 159.5,52.1667 159.5,51.5 Z"/></g>
<g><path style="opacity:0.994" fill="#eff9ed" d="M 330.5,92.5 C 337.102,101.385 341.269,111.385 343,122.5C 343.667,150.167 343.667,177.833 343,205.5C 342.5,206 342,206.5 341.5,207C 329.801,207.23 318.134,207.73 306.5,208.5C 303.635,208.945 301.135,208.278 299,206.5C 298.5,181.502 298.333,156.502 298.5,131.5C 298.915,122.082 294.415,117.415 285,117.5C 281.814,117.744 278.647,118.077 275.5,118.5C 276.045,121.813 276.545,125.146 277,128.5C 277.833,154.173 277.666,179.84 276.5,205.5C 275.692,205.808 275.025,206.308 274.5,207C 263.121,207.209 251.788,207.709 240.5,208.5C 237.881,208.768 235.381,208.435 233,207.5C 232.5,182.169 232.333,156.836 232.5,131.5C 233.871,124.561 231.204,120.227 224.5,118.5C 220.298,117.201 215.964,117.201 211.5,118.5C 210.5,147.492 210.167,176.492 210.5,205.5C 209.711,205.783 209.044,206.283 208.5,207C 196.801,207.23 185.134,207.73 173.5,208.5C 166.167,209.153 163.501,205.82 165.5,198.5C 166.833,175.833 166.833,153.167 165.5,130.5C 165.333,117.163 165.5,103.829 166,90.5C 166.465,89.0692 167.299,87.9025 168.5,87C 188.779,78.9601 209.779,75.9601 231.5,78C 238.665,79.7203 245.498,82.2203 252,85.5C 273.528,75.9055 295.362,75.0721 317.5,83C 322.256,85.6991 326.589,88.8658 330.5,92.5 Z"/></g>
<g><path style="opacity:0.995" fill="#eff9ed" d="M 451.5,92.5 C 455.423,101.834 458.589,111.501 461,121.5C 461.667,148.167 461.667,174.833 461,201.5C 459.2,203.317 457.034,204.484 454.5,205C 429.686,210.86 404.686,211.86 379.5,208C 372.489,205.834 365.822,203.001 359.5,199.5C 359.167,199.5 358.833,199.5 358.5,199.5C 351.75,190.253 347.75,179.919 346.5,168.5C 346.684,157.472 350.684,148.139 358.5,140.5C 363.575,136.806 369.241,134.473 375.5,133.5C 386.135,130.927 396.802,129.927 407.5,130.5C 410.673,131.368 413.673,131.368 416.5,130.5C 416.839,123.332 413.505,118.832 406.5,117C 395.936,115.766 385.603,116.766 375.5,120C 373.677,120.997 372.01,122.164 370.5,123.5C 368.516,123.617 366.85,122.95 365.5,121.5C 361.03,112.06 356.696,102.56 352.5,93C 353.101,91.395 354.101,90.0616 355.5,89C 381.282,76.4743 407.949,74.141 435.5,82C 441.033,85.2617 446.366,88.7617 451.5,92.5 Z M 407.5,130.5 C 410.362,129.319 413.362,129.319 416.5,130.5C 413.673,131.368 410.673,131.368 407.5,130.5 Z M 413.5,171.5 C 414.5,171.5 415.5,171.5 416.5,171.5C 416.5,172.5 416.5,173.5 416.5,174.5C 413.482,174.704 410.482,175.037 407.5,175.5C 408.802,173.178 410.802,171.845 413.5,171.5 Z"/></g>
<g><path style="opacity:0.997" fill="#eff9ed" d="M 594.5,57.5 C 594.024,65.8628 594.691,74.1962 596.5,82.5C 600.783,83.4922 605.116,83.8256 609.5,83.5C 612.518,83.3354 615.518,83.502 618.5,84C 620.229,85.7889 620.896,87.9556 620.5,90.5C 622.167,90.5 623.833,90.5 625.5,90.5C 623.782,91.224 621.948,91.8906 620,92.5C 619.947,101.934 619.28,111.267 618,120.5C 610.921,121.48 603.755,121.813 596.5,121.5C 596.333,134.504 596.5,147.504 597,160.5C 598.475,168.613 603.308,171.946 611.5,170.5C 614.946,169.293 618.279,169.46 621.5,171C 622.423,173.041 622.756,175.208 622.5,177.5C 623.5,177.5 624.5,177.5 625.5,177.5C 624.469,178.249 623.302,178.915 622,179.5C 621.667,188.167 621.333,196.833 621,205.5C 620.5,207.333 619.333,208.5 617.5,209C 608.213,210.483 598.879,210.816 589.5,210C 581.998,208.063 574.665,205.897 567.5,203.5C 556.896,193.548 551.396,181.215 551,166.5C 550.5,154.505 550.333,142.505 550.5,130.5C 550.5,129.833 550.5,129.167 550.5,128.5C 551.814,114.896 551.814,101.229 550.5,87.5C 549.668,96.4816 549.168,105.482 549,114.5C 548.5,115 548,115.5 547.5,116C 539.167,116.333 530.833,116.667 522.5,117C 520.899,117.273 519.399,117.773 518,118.5C 517.667,147.167 517.333,175.833 517,204.5C 516.5,205.667 515.667,206.5 514.5,207C 502.468,207.228 490.468,207.728 478.5,208.5C 477.833,208.5 477.167,208.5 476.5,208.5C 474.983,208.489 473.816,207.823 473,206.5C 472.751,176.157 472.251,145.823 471.5,115.5C 471.334,107.493 471.5,99.4931 472,91.5C 473.944,88.2663 476.778,86.0997 480.5,85C 498.532,77.9286 517.199,75.5952 536.5,78C 541.631,77.9007 546.131,79.4007 550,82.5C 550.333,73.1667 550.667,63.8333 551,54.5C 551.309,53.2341 551.809,52.0674 552.5,51C 565.833,50.3333 579.167,50.3333 592.5,51C 593.669,53.0065 594.335,55.1732 594.5,57.5 Z"/></g>
<g><path style="opacity:0.883" fill="#1d73d5" d="M 594.5,57.5 C 599.126,56.7004 602.96,58.0337 606,61.5C 607.929,68.6892 609.096,76.0225 609.5,83.5C 605.116,83.8256 600.783,83.4922 596.5,82.5C 594.691,74.1962 594.024,65.8628 594.5,57.5 Z"/></g>
<g><path style="opacity:0.996" fill="#eff9ed" d="M 674.5,87.5 C 673.678,126.792 673.178,166.125 673,205.5C 672.5,206 672,206.5 671.5,207C 659.311,207.216 647.145,207.716 635,208.5C 632.594,208.297 630.594,207.297 629,205.5C 628.781,196.12 628.281,186.787 627.5,177.5C 627.5,163.5 627.5,149.5 627.5,135.5C 628.816,120.493 628.816,105.493 627.5,90.5C 627.257,87.1174 627.924,83.9508 629.5,81C 643.833,80.3333 658.167,80.3333 672.5,81C 674.229,82.7889 674.896,84.9556 674.5,87.5 Z"/></g>
<g><path style="opacity:0.99" fill="#eff9ed" d="M 757.5,37.5 C 756.999,47.8861 756.166,58.2195 755,68.5C 748.915,69.3117 742.748,69.8117 736.5,70C 731.115,73.725 729.115,78.8916 730.5,85.5C 736.196,85.553 741.862,85.2197 747.5,84.5C 752.708,83.873 755.208,86.2063 755,91.5C 755.498,88.5184 755.665,85.5184 755.5,82.5C 759.527,80.6416 763.86,79.9749 768.5,80.5C 779.172,80.3335 789.839,80.5002 800.5,81C 802.229,82.7889 802.896,84.9556 802.5,87.5C 801.354,110.457 801.187,133.457 802,156.5C 803.792,164.477 808.626,167.477 816.5,165.5C 819.206,165.425 821.873,165.092 824.5,164.5C 824.017,136.745 824.517,109.078 826,81.5C 840.425,80.3436 854.925,80.1769 869.5,81C 871.229,82.7889 871.896,84.9556 871.5,87.5C 871.5,88.1667 871.5,88.8333 871.5,89.5C 870.667,126.331 870.167,163.331 870,200.5C 869.17,205.808 868.67,211.141 868.5,216.5C 865.967,225.567 861.8,233.9 856,241.5C 845.696,250.898 833.53,255.731 819.5,256C 810.5,256.667 801.5,256.667 792.5,256C 783.253,254.604 774.253,252.438 765.5,249.5C 762.943,247.968 760.443,246.301 758,244.5C 757.333,242.5 757.333,240.5 758,238.5C 763.212,229.238 769.046,220.405 775.5,212C 777.5,211.333 779.5,211.333 781.5,212C 789.401,215.814 797.735,217.647 806.5,217.5C 808.722,216.614 810.888,216.614 813,217.5C 821.283,216.389 825.449,211.723 825.5,203.5C 807.163,206.665 789.83,203.998 773.5,195.5C 762.853,185.535 757.019,173.202 756,158.5C 755.5,151.174 755.334,143.841 755.5,136.5C 756.614,122.532 756.781,108.532 756,94.5C 755.683,92.6992 755.016,92.3659 754,93.5C 753.667,102.5 753.333,111.5 753,120.5C 752.283,121.044 751.783,121.711 751.5,122.5C 744.5,122.5 737.5,122.5 730.5,122.5C 730.5,150.167 730.5,177.833 730.5,205.5C 729.711,205.783 729.044,206.283 728.5,207C 716.455,207.207 704.455,207.707 692.5,208.5C 690.833,208.5 689.167,208.5 687.5,208.5C 686.833,208.167 686.167,207.833 685.5,207.5C 684.524,168.191 684.19,128.857 684.5,89.5C 684.68,81.8252 685.014,74.1585 685.5,66.5C 686.338,66.1583 686.672,65.4916 686.5,64.5C 686.768,61.6343 687.435,58.9677 688.5,56.5C 694.465,44.1529 704.132,35.9862 717.5,32C 728.783,30.4501 740.117,30.1167 751.5,31C 755.658,31.1372 757.658,33.3039 757.5,37.5 Z M 755.5,82.5 C 755.665,85.5184 755.498,88.5184 755,91.5C 755.208,86.2063 752.708,83.873 747.5,84.5C 749.838,82.9605 752.505,82.2938 755.5,82.5 Z"/></g>
<g><path style="opacity:0.996" fill="#4792d8" d="M 871.5,89.5 C 871.667,127.501 871.5,165.501 871,203.5C 870.386,208.015 869.552,212.348 868.5,216.5C 868.67,211.141 869.17,205.808 870,200.5C 870.167,163.331 870.667,126.331 871.5,89.5 Z"/></g>
<g><path style="opacity:0.967" fill="#2073d4" d="M 871.5,87.5 C 878.675,85.9938 883.175,88.6605 885,95.5C 885.667,132.5 885.667,169.5 885,206.5C 884.717,249.95 862.883,271.284 819.5,270.5C 801.438,271.152 784.771,266.819 769.5,257.5C 767.095,255.358 765.762,252.691 765.5,249.5C 774.253,252.438 783.253,254.604 792.5,256C 801.5,256.667 810.5,256.667 819.5,256C 833.53,255.731 845.696,250.898 856,241.5C 861.8,233.9 865.967,225.567 868.5,216.5C 869.552,212.348 870.386,208.015 871,203.5C 871.5,165.501 871.667,127.501 871.5,89.5C 871.5,88.8333 871.5,88.1667 871.5,87.5 Z"/></g>
<g><path style="opacity:0.833" fill="#2076d3" d="M 674.5,87.5 C 678.085,87.1524 681.418,87.819 684.5,89.5C 684.19,128.857 684.524,168.191 685.5,207.5C 683.909,210.584 683.243,214.584 683.5,219.5C 682.737,220.268 681.737,220.768 680.5,221C 667.5,221.667 654.5,221.667 641.5,221C 639.376,219.878 637.543,218.378 636,216.5C 633.831,220.01 630.664,222.177 626.5,223C 609.961,226.41 594.295,224.077 579.5,216C 574.623,212.624 570.623,208.457 567.5,203.5C 574.665,205.897 581.998,208.063 589.5,210C 598.879,210.816 608.213,210.483 617.5,209C 619.333,208.5 620.5,207.333 621,205.5C 621.333,196.833 621.667,188.167 622,179.5C 623.302,178.915 624.469,178.249 625.5,177.5C 626.167,177.5 626.833,177.5 627.5,177.5C 628.281,186.787 628.781,196.12 629,205.5C 630.594,207.297 632.594,208.297 635,208.5C 647.145,207.716 659.311,207.216 671.5,207C 672,206.5 672.5,206 673,205.5C 673.178,166.125 673.678,126.792 674.5,87.5 Z"/></g>
<g><path style="opacity:0.946" fill="#2072d6" d="M 802.5,87.5 C 810.797,85.8857 815.297,89.219 816,97.5C 816.5,120.164 816.667,142.831 816.5,165.5C 808.626,167.477 803.792,164.477 802,156.5C 801.187,133.457 801.354,110.457 802.5,87.5 Z"/></g>
<g><path style="opacity:0.996" fill="#2476d5" d="M 625.5,90.5 C 626.167,90.5 626.833,90.5 627.5,90.5C 628.816,105.493 628.816,120.493 627.5,135.5C 622.167,135.5 616.833,135.5 611.5,135.5C 611.5,147.167 611.5,158.833 611.5,170.5C 603.308,171.946 598.475,168.613 597,160.5C 596.5,147.504 596.333,134.504 596.5,121.5C 603.755,121.813 610.921,121.48 618,120.5C 619.28,111.267 619.947,101.934 620,92.5C 621.948,91.8906 623.782,91.224 625.5,90.5 Z"/></g>
<g><path style="opacity:0.995" fill="#2879d4" d="M 451.5,92.5 C 460.733,97.9854 467.399,105.652 471.5,115.5C 472.251,145.823 472.751,176.157 473,206.5C 473.816,207.823 474.983,208.489 476.5,208.5C 476.358,211.617 475.024,214.117 472.5,216C 458.929,220.702 444.929,223.369 430.5,224C 410.1,226.478 390.767,223.144 372.5,214C 366.904,210.241 362.571,205.408 359.5,199.5C 365.822,203.001 372.489,205.834 379.5,208C 404.686,211.86 429.686,210.86 454.5,205C 457.034,204.484 459.2,203.317 461,201.5C 461.667,174.833 461.667,148.167 461,121.5C 458.589,111.501 455.423,101.834 451.5,92.5 Z"/></g>
<g><path style="opacity:0.995" fill="#2375d5" d="M 330.5,92.5 C 342.758,98.6005 350.925,108.267 355,121.5C 356.575,127.78 357.742,134.113 358.5,140.5C 350.684,148.139 346.684,157.472 346.5,168.5C 347.75,179.919 351.75,190.253 358.5,199.5C 359.081,206.061 358.248,212.395 356,218.5C 354.829,219.893 353.329,220.727 351.5,221C 338.5,221.667 325.5,221.667 312.5,221C 307.975,218.115 305.975,213.948 306.5,208.5C 318.134,207.73 329.801,207.23 341.5,207C 342,206.5 342.5,206 343,205.5C 343.667,177.833 343.667,150.167 343,122.5C 341.269,111.385 337.102,101.385 330.5,92.5 Z"/></g>
<g><path style="opacity:0.965" fill="#2076d2" d="M 550.5,128.5 C 549.883,128.389 549.383,128.056 549,127.5C 545.397,128.135 541.897,128.802 538.5,129.5C 535.991,130.113 533.491,130.78 531,131.5C 530.667,159.833 530.333,188.167 530,216.5C 529.578,218.426 528.411,219.426 526.5,219.5C 512.87,220.446 499.203,220.78 485.5,220.5C 483.61,220.703 482.11,220.037 481,218.5C 479.241,215.392 478.408,212.059 478.5,208.5C 490.468,207.728 502.468,207.228 514.5,207C 515.667,206.5 516.5,205.667 517,204.5C 517.333,175.833 517.667,147.167 518,118.5C 519.399,117.773 520.899,117.273 522.5,117C 530.833,116.667 539.167,116.333 547.5,116C 548,115.5 548.5,115 549,114.5C 549.168,105.482 549.668,96.4816 550.5,87.5C 551.814,101.229 551.814,114.896 550.5,128.5 Z"/></g>
<g><path style="opacity:0.996" fill="#2278d3" d="M 416.5,130.5 C 413.362,129.319 410.362,129.319 407.5,130.5C 396.802,129.927 386.135,130.927 375.5,133.5C 373.308,130.45 371.642,127.117 370.5,123.5C 372.01,122.164 373.677,120.997 375.5,120C 385.603,116.766 395.936,115.766 406.5,117C 413.505,118.832 416.839,123.332 416.5,130.5 Z"/></g>
<g><path style="opacity:0.963" fill="#2072d6" d="M 224.5,118.5 C 231.204,120.227 233.871,124.561 232.5,131.5C 230.167,131.5 227.833,131.5 225.5,131.5C 225.667,158.835 225.5,186.169 225,213.5C 224.562,217.567 222.395,220.067 218.5,221C 205.833,221.667 193.167,221.667 180.5,221C 178.671,220.727 177.171,219.893 176,218.5C 174.241,215.392 173.408,212.059 173.5,208.5C 185.134,207.73 196.801,207.23 208.5,207C 209.044,206.283 209.711,205.783 210.5,205.5C 211.498,177.005 211.831,148.338 211.5,119.5C 215.785,118.705 220.119,118.372 224.5,118.5 Z"/></g>
<g><path style="opacity:0.996" fill="#4993d8" d="M 224.5,118.5 C 220.119,118.372 215.785,118.705 211.5,119.5C 211.831,148.338 211.498,177.005 210.5,205.5C 210.167,176.492 210.5,147.492 211.5,118.5C 215.964,117.201 220.298,117.201 224.5,118.5 Z"/></g>
<g><path style="opacity:0.996" fill="#4894d8" d="M 751.5,122.5 C 745.021,123.491 738.354,123.824 731.5,123.5C 731.831,151.005 731.498,178.338 730.5,205.5C 730.5,177.833 730.5,150.167 730.5,122.5C 737.5,122.5 744.5,122.5 751.5,122.5 Z"/></g>
<g><path style="opacity:0.012" fill="#0a52ee" d="M 550.5,128.5 C 550.5,129.167 550.5,129.833 550.5,130.5C 546.566,129.64 542.566,129.307 538.5,129.5C 541.897,128.802 545.397,128.135 549,127.5C 549.383,128.056 549.883,128.389 550.5,128.5 Z"/></g>
<g><path style="opacity:0.799" fill="#2271d6" d="M 755.5,136.5 C 751.833,136.5 748.167,136.5 744.5,136.5C 744.667,162.169 744.5,187.835 744,213.5C 743.562,217.567 741.395,220.067 737.5,221C 724.5,221.667 711.5,221.667 698.5,221C 693.073,218.559 691.073,214.392 692.5,208.5C 704.455,207.707 716.455,207.207 728.5,207C 729.044,206.283 729.711,205.783 730.5,205.5C 731.498,178.338 731.831,151.005 731.5,123.5C 738.354,123.824 745.021,123.491 751.5,122.5C 751.783,121.711 752.283,121.044 753,120.5C 753.333,111.5 753.667,102.5 754,93.5C 755.016,92.3659 755.683,92.6992 756,94.5C 756.781,108.532 756.614,122.532 755.5,136.5 Z"/></g>
<g><path style="opacity:0.944" fill="#1c73d2" d="M 298.5,131.5 C 295.833,131.5 293.167,131.5 290.5,131.5C 291.641,159.47 291.808,187.47 291,215.5C 290.06,218.773 287.893,220.606 284.5,221C 271.833,221.667 259.167,221.667 246.5,221C 241.436,218.371 239.436,214.204 240.5,208.5C 251.788,207.709 263.121,207.209 274.5,207C 275.025,206.308 275.692,205.808 276.5,205.5C 277.666,179.84 277.833,154.173 277,128.5C 276.545,125.146 276.045,121.813 275.5,118.5C 278.647,118.077 281.814,117.744 285,117.5C 294.415,117.415 298.915,122.082 298.5,131.5 Z"/></g>
<g><path style="opacity:0.995" fill="#2678d4" d="M 151.5,119.5 C 156.53,122.684 161.196,126.351 165.5,130.5C 166.833,153.167 166.833,175.833 165.5,198.5C 153.269,212.12 137.936,220.287 119.5,223C 90.624,227.827 64.2907,221.827 40.5,205C 35.9553,201.956 32.2887,198.123 29.5,193.5C 31.1992,193.34 32.8659,193.506 34.5,194C 54.3596,207.709 76.3596,213.043 100.5,210C 149.514,204.684 168.347,178.184 157,130.5C 154.402,127.11 152.568,123.443 151.5,119.5 Z"/></g>
<g><path style="opacity:0.988" fill="#2379d4" d="M 44.5,124.5 C 52.2593,129.713 60.5926,133.88 69.5,137C 81.5853,140.083 93.5853,143.416 105.5,147C 107.96,148.458 110.127,150.291 112,152.5C 112.743,154.874 112.243,156.874 110.5,158.5C 94.8665,155.674 79.8665,150.841 65.5,144C 57.027,139.025 50.027,132.525 44.5,124.5 Z"/></g>
<g><path style="opacity:0.996" fill="#277ad3" d="M 413.5,171.5 C 410.802,171.845 408.802,173.178 407.5,175.5C 402.514,175.67 398.014,174.337 394,171.5C 390.998,165.007 392.831,160.507 399.5,158C 405.195,157.374 410.862,157.541 416.5,158.5C 416.5,162.5 416.5,166.5 416.5,170.5C 415.209,170.263 414.209,170.596 413.5,171.5 Z"/></g>
<g><path style="opacity:0.994" fill="#2278d4" d="M 773.5,195.5 C 789.83,203.998 807.163,206.665 825.5,203.5C 825.449,211.723 821.283,216.389 813,217.5C 810.888,216.614 808.722,216.614 806.5,217.5C 792.348,214.922 781.348,207.589 773.5,195.5 Z"/></g>
<g><path style="opacity:0.246" fill="#215ae5" d="M 685.5,207.5 C 686.167,207.833 686.833,208.167 687.5,208.5C 687.722,212.842 686.389,216.509 683.5,219.5C 683.243,214.584 683.909,210.584 685.5,207.5 Z"/></g>
<g><path style="opacity:0.004" fill="#020cff" d="M 526.5,219.5 C 526.082,220.222 525.416,220.722 524.5,221C 511.327,221.827 498.327,221.66 485.5,220.5C 499.203,220.78 512.87,220.446 526.5,219.5 Z"/></g>
</svg>
