<svg width="809" height="546" viewBox="0 0 809 546" fill="none" xmlns="http://www.w3.org/2000/svg">
<g clip-path="url(#clip0_3_87)">
<path d="M236.066 53.7255L244.617 65.9119L275.122 52.1217L290.806 47.7489C292.844 47.1808 294.682 46.135 296.138 44.716C297.594 43.297 298.615 41.5545 299.101 39.6627C299.587 37.7708 299.519 35.7959 298.906 33.9352C298.292 32.0745 297.154 30.3932 295.604 29.0594C293.308 27.0829 290.26 25.997 287.103 26.0311C283.945 26.0651 280.926 27.2163 278.682 29.2418L265.52 41.1212L236.066 53.7255Z" fill="#A0616A"/>
<path d="M250.497 65.3439L239.096 49.0954L195.867 66.4377C192.763 67.683 190.064 69.6386 188.033 72.1149C186.001 74.5912 184.706 77.5041 184.273 80.5711C183.738 84.353 184.538 88.1918 186.557 91.5311C188.576 94.8704 191.709 97.5366 195.501 99.1431L264.412 127.401C269.169 129.416 274.6 129.655 279.547 128.067C284.494 126.479 288.564 123.19 290.888 118.903C292.138 116.597 292.841 114.077 292.952 111.507C293.064 108.937 292.58 106.375 291.533 103.986C290.486 101.598 288.9 99.4373 286.877 97.6451C284.853 95.8529 282.439 94.4692 279.791 93.5841L228.098 77.2669L250.497 65.3439Z" fill="#1976D2"/>
<path d="M706.735 341.185C706.735 336.305 704.938 332.343 702.731 332.334H101.082C98.8654 332.343 97.0779 336.305 97.0679 341.185V542.101C97.068 542.555 96.8831 542.992 96.5492 543.327C96.2153 543.663 95.7563 543.873 95.2617 543.917C93.6469 544.058 92.032 544.19 90.4172 544.311C90.3773 544.311 90.3373 544.321 90.2973 544.321C89.4186 544.393 88.5398 544.448 87.6611 544.512H87.6511C87.199 543.75 86.7522 542.981 86.3107 542.206C86.1614 541.944 86.0833 541.654 86.0833 541.36V329.703C86.0833 328.355 86.1432 326.998 86.243 325.66C86.3856 323.822 86.6356 321.992 86.992 320.178C88.6796 311.719 92.4943 305.991 96.8282 305.973H706.975C707.607 305.977 708.233 306.097 708.812 306.328C709.664 306.671 710.434 307.163 711.079 307.776C711.955 308.606 712.704 309.54 713.306 310.553C715.443 313.986 716.971 319.103 717.51 325.059C717.51 325.113 717.52 325.168 717.52 325.223C717.66 326.698 717.73 328.2 717.72 329.703L717.86 349.217L717.95 360.854L718.219 397.369L718.319 410.336L718.758 543.465C718.758 543.948 718.548 544.411 718.174 544.752C717.799 545.094 717.291 545.286 716.761 545.286H708.733C708.203 545.286 707.695 545.094 707.32 544.752C706.946 544.411 706.735 543.948 706.735 543.465V341.185Z" fill="#E6E6E6"/>
<path d="M101.337 440.692L88.3924 438.572L91.1985 392.032L110.305 395.16L101.337 440.692Z" fill="#A0616A"/>
<path d="M99.3685 453.081L59.5602 446.562L59.6506 446.103C60.3886 442.356 62.7287 439.03 66.1561 436.856C69.5835 434.682 73.8175 433.838 77.9269 434.511L77.9279 434.511L86.1898 430.671L98.7664 437.923L102.241 438.492L99.3685 453.081Z" fill="#2F2E41"/>
<path d="M415.292 391.569H335.914C333.787 391.567 331.747 390.795 330.243 389.423C328.739 388.052 327.892 386.192 327.89 384.252V318.025C327.892 316.086 328.739 314.226 330.243 312.854C331.747 311.482 333.787 310.711 335.914 310.709H415.292C417.42 310.711 419.459 311.482 420.963 312.854C422.468 314.226 423.314 316.086 423.316 318.025V384.252C423.314 386.192 422.468 388.052 420.963 389.423C419.459 390.795 417.42 391.567 415.292 391.569Z" fill="#3F3D56"/>
<path d="M409.713 385.471H341.494C339.605 385.469 337.794 384.784 336.458 383.566C335.123 382.348 334.371 380.696 334.369 378.974V323.303C334.371 321.581 335.123 319.93 336.458 318.712C337.794 317.494 339.605 316.809 341.494 316.807H409.713C411.601 316.809 413.412 317.494 414.748 318.712C416.084 319.93 416.835 321.581 416.837 323.303V378.974C416.835 380.696 416.084 382.348 414.748 383.566C413.412 384.784 411.601 385.469 409.713 385.471Z" fill="white"/>
<path d="M402.907 333.015H348.299C347.827 333.015 347.374 332.844 347.04 332.539C346.706 332.235 346.518 331.821 346.518 331.391C346.518 330.96 346.706 330.547 347.04 330.242C347.374 329.938 347.827 329.767 348.299 329.767H402.907C403.38 329.767 403.833 329.938 404.167 330.242C404.501 330.547 404.688 330.96 404.688 331.391C404.688 331.821 404.501 332.235 404.167 332.539C403.833 332.844 403.38 333.015 402.907 333.015Z" fill="#1976D2"/>
<path d="M402.907 339.432H348.299C347.827 339.432 347.373 339.261 347.039 338.956C346.705 338.652 346.518 338.239 346.518 337.808C346.518 337.377 346.705 336.964 347.039 336.659C347.373 336.355 347.827 336.184 348.299 336.184H402.907C403.38 336.184 403.833 336.355 404.167 336.659C404.501 336.964 404.688 337.377 404.688 337.808C404.688 338.239 404.501 338.652 404.167 338.956C403.833 339.261 403.38 339.432 402.907 339.432Z" fill="#1976D2"/>
<path d="M371.97 345.849H348.299C347.827 345.849 347.373 345.678 347.039 345.373C346.705 345.069 346.518 344.656 346.518 344.225C346.518 343.794 346.705 343.381 347.039 343.077C347.373 342.772 347.827 342.601 348.299 342.601H371.97C372.443 342.601 372.896 342.772 373.23 343.077C373.564 343.381 373.751 343.794 373.751 344.225C373.751 344.656 373.564 345.069 373.23 345.373C372.896 345.678 372.443 345.849 371.97 345.849Z" fill="#1976D2"/>
<path d="M402.907 359.289H348.299C347.827 359.289 347.374 359.118 347.04 358.814C346.706 358.509 346.518 358.096 346.518 357.665C346.518 357.234 346.706 356.821 347.04 356.517C347.374 356.212 347.827 356.041 348.299 356.041H402.907C403.38 356.041 403.833 356.212 404.167 356.517C404.501 356.821 404.688 357.234 404.688 357.665C404.688 358.096 404.501 358.509 404.167 358.814C403.833 359.118 403.38 359.289 402.907 359.289Z" fill="#E4E4E4"/>
<path d="M402.907 365.706H348.299C348.065 365.707 347.833 365.665 347.616 365.584C347.399 365.503 347.203 365.383 347.037 365.232C346.871 365.081 346.739 364.902 346.65 364.705C346.56 364.507 346.514 364.296 346.514 364.082C346.514 363.869 346.56 363.657 346.65 363.46C346.739 363.263 346.871 363.083 347.037 362.933C347.203 362.782 347.399 362.662 347.616 362.581C347.833 362.499 348.065 362.458 348.299 362.458H402.907C403.38 362.458 403.833 362.629 404.167 362.934C404.501 363.239 404.688 363.652 404.688 364.082C404.688 364.513 404.501 364.926 404.167 365.231C403.833 365.535 403.38 365.706 402.907 365.706Z" fill="#E4E4E4"/>
<path d="M371.97 372.124H348.299C347.827 372.124 347.373 371.953 347.039 371.648C346.705 371.343 346.518 370.93 346.518 370.5C346.518 370.069 346.705 369.656 347.039 369.351C347.373 369.047 347.827 368.875 348.299 368.875H371.97C372.443 368.875 372.896 369.047 373.23 369.351C373.564 369.656 373.751 370.069 373.751 370.5C373.751 370.93 373.564 371.343 373.23 371.648C372.896 371.953 372.443 372.124 371.97 372.124Z" fill="#E4E4E4"/>
<path d="M543.248 214.662H478.419C477.502 214.664 476.623 214.997 475.976 215.589C475.328 216.181 474.965 216.983 474.966 217.82V311.204H546.711V217.82C546.711 217.405 546.621 216.994 546.448 216.611C546.274 216.228 546.019 215.88 545.697 215.587C545.375 215.293 544.994 215.061 544.573 214.902C544.153 214.744 543.703 214.662 543.248 214.662ZM511.052 267.722C509.024 267.714 507.083 266.975 505.649 265.668C504.216 264.361 503.406 262.59 503.397 260.742V249.971C503.399 248.121 504.206 246.347 505.642 245.04C507.077 243.732 509.023 242.998 511.052 242.998C513.081 242.998 515.026 243.732 516.462 245.04C517.897 246.347 518.705 248.121 518.707 249.971V260.742C518.698 262.59 517.888 264.361 516.454 265.668C515.021 266.975 513.079 267.714 511.052 267.722Z" fill="#2F2E41"/>
<path d="M474.743 308.217V317.227C474.744 317.694 474.948 318.141 475.31 318.471C475.672 318.801 476.163 318.987 476.675 318.988H545.002C545.513 318.986 546.003 318.8 546.365 318.47C546.726 318.14 546.931 317.693 546.933 317.227V308.217H474.743Z" fill="#3F3D56"/>
<path d="M650.598 68.9252H373.481C371.1 68.9286 368.818 69.7926 367.134 71.3277C365.451 72.8629 364.503 74.944 364.5 77.1151V247.634C364.502 249.806 365.449 251.888 367.133 253.423C368.817 254.958 371.1 255.822 373.481 255.824H650.598C652.98 255.822 655.263 254.958 656.947 253.423C658.631 251.888 659.578 249.806 659.58 247.634V77.1151C659.576 74.944 658.629 72.8629 656.945 71.3277C655.262 69.7926 652.979 68.9286 650.598 68.9252Z" fill="#3F3D56"/>
<path d="M648.285 74.8406H375.796C374.522 74.8431 373.3 75.3067 372.399 76.1295C371.499 76.9523 370.993 78.0672 370.993 79.2297V245.522C370.995 246.683 371.502 247.796 372.402 248.617C373.303 249.438 374.523 249.9 375.796 249.902H648.285C649.559 249.9 650.779 249.438 651.679 248.617C652.58 247.796 653.086 246.683 653.089 245.522V79.2297C653.088 78.0672 652.583 76.9523 651.682 76.1295C650.782 75.3067 649.56 74.8431 648.285 74.8406Z" fill="white"/>
<path d="M595.209 322.123H433.093C432.649 322.123 432.211 322.033 431.81 321.859C431.41 321.685 431.057 321.432 430.777 321.118C430.498 320.803 430.298 320.436 430.194 320.043C430.09 319.649 430.083 319.24 430.175 318.844L432.69 307.95C432.833 307.34 433.201 306.794 433.732 306.401C434.262 306.008 434.925 305.793 435.608 305.791H592.694C593.378 305.793 594.04 306.008 594.57 306.401C595.101 306.794 595.469 307.34 595.612 307.95L598.127 318.844C598.219 319.24 598.212 319.649 598.108 320.043C598.004 320.436 597.804 320.803 597.525 321.118C597.245 321.432 596.892 321.685 596.492 321.859C596.091 322.033 595.653 322.123 595.209 322.123Z" fill="#2F2E41"/>
<path d="M441.265 307.752H437.247C436.978 307.752 436.759 307.951 436.759 308.197V310.04C436.759 310.285 436.978 310.484 437.247 310.484H441.265C441.534 310.484 441.752 310.285 441.752 310.04V308.197C441.752 307.951 441.534 307.752 441.265 307.752Z" fill="#3F3D56"/>
<path d="M451.251 307.752H447.233C446.964 307.752 446.745 307.951 446.745 308.197V310.04C446.745 310.285 446.964 310.484 447.233 310.484H451.251C451.52 310.484 451.738 310.285 451.738 310.04V308.197C451.738 307.951 451.52 307.752 451.251 307.752Z" fill="#3F3D56"/>
<path d="M461.237 307.752H457.219C456.95 307.752 456.731 307.951 456.731 308.197V310.04C456.731 310.285 456.95 310.484 457.219 310.484H461.237C461.506 310.484 461.724 310.285 461.724 310.04V308.197C461.724 307.951 461.506 307.752 461.237 307.752Z" fill="#3F3D56"/>
<path d="M471.223 307.752H467.205C466.936 307.752 466.717 307.951 466.717 308.197V310.04C466.717 310.285 466.936 310.484 467.205 310.484H471.223C471.492 310.484 471.71 310.285 471.71 310.04V308.197C471.71 307.951 471.492 307.752 471.223 307.752Z" fill="#3F3D56"/>
<path d="M481.209 307.752H477.191C476.922 307.752 476.703 307.951 476.703 308.197V310.04C476.703 310.285 476.922 310.484 477.191 310.484H481.209C481.478 310.484 481.696 310.285 481.696 310.04V308.197C481.696 307.951 481.478 307.752 481.209 307.752Z" fill="#3F3D56"/>
<path d="M491.195 307.752H487.177C486.908 307.752 486.689 307.951 486.689 308.197V310.04C486.689 310.285 486.908 310.484 487.177 310.484H491.195C491.464 310.484 491.683 310.285 491.683 310.04V308.197C491.683 307.951 491.464 307.752 491.195 307.752Z" fill="#3F3D56"/>
<path d="M501.181 307.752H497.163C496.894 307.752 496.676 307.951 496.676 308.197V310.04C496.676 310.285 496.894 310.484 497.163 310.484H501.181C501.45 310.484 501.669 310.285 501.669 310.04V308.197C501.669 307.951 501.45 307.752 501.181 307.752Z" fill="#3F3D56"/>
<path d="M511.167 307.752H507.149C506.88 307.752 506.662 307.951 506.662 308.197V310.04C506.662 310.285 506.88 310.484 507.149 310.484H511.167C511.436 310.484 511.655 310.285 511.655 310.04V308.197C511.655 307.951 511.436 307.752 511.167 307.752Z" fill="#3F3D56"/>
<path d="M521.153 307.752H517.135C516.866 307.752 516.648 307.951 516.648 308.197V310.04C516.648 310.285 516.866 310.484 517.135 310.484H521.153C521.422 310.484 521.641 310.285 521.641 310.04V308.197C521.641 307.951 521.422 307.752 521.153 307.752Z" fill="#3F3D56"/>
<path d="M531.139 307.752H527.121C526.852 307.752 526.634 307.951 526.634 308.197V310.04C526.634 310.285 526.852 310.484 527.121 310.484H531.139C531.408 310.484 531.627 310.285 531.627 310.04V308.197C531.627 307.951 531.408 307.752 531.139 307.752Z" fill="#3F3D56"/>
<path d="M541.125 307.752H537.107C536.838 307.752 536.62 307.951 536.62 308.197V310.04C536.62 310.285 536.838 310.484 537.107 310.484H541.125C541.394 310.484 541.613 310.285 541.613 310.04V308.197C541.613 307.951 541.394 307.752 541.125 307.752Z" fill="#3F3D56"/>
<path d="M551.111 307.752H547.093C546.824 307.752 546.606 307.951 546.606 308.197V310.04C546.606 310.285 546.824 310.484 547.093 310.484H551.111C551.38 310.484 551.599 310.285 551.599 310.04V308.197C551.599 307.951 551.38 307.752 551.111 307.752Z" fill="#3F3D56"/>
<path d="M561.097 307.752H557.079C556.81 307.752 556.592 307.951 556.592 308.197V310.04C556.592 310.285 556.81 310.484 557.079 310.484H561.097C561.366 310.484 561.585 310.285 561.585 310.04V308.197C561.585 307.951 561.366 307.752 561.097 307.752Z" fill="#3F3D56"/>
<path d="M571.083 307.752H567.065C566.796 307.752 566.578 307.951 566.578 308.197V310.04C566.578 310.285 566.796 310.484 567.065 310.484H571.083C571.352 310.484 571.571 310.285 571.571 310.04V308.197C571.571 307.951 571.352 307.752 571.083 307.752Z" fill="#3F3D56"/>
<path d="M581.069 307.752H577.051C576.782 307.752 576.564 307.951 576.564 308.197V310.04C576.564 310.285 576.782 310.484 577.051 310.484H581.069C581.339 310.484 581.557 310.285 581.557 310.04V308.197C581.557 307.951 581.339 307.752 581.069 307.752Z" fill="#3F3D56"/>
<path d="M591.055 307.752H587.037C586.768 307.752 586.55 307.951 586.55 308.197V310.04C586.55 310.285 586.768 310.484 587.037 310.484H591.055C591.325 310.484 591.543 310.285 591.543 310.04V308.197C591.543 307.951 591.325 307.752 591.055 307.752Z" fill="#3F3D56"/>
<path d="M441.147 312.305H437.129C436.86 312.305 436.641 312.504 436.641 312.75V314.593C436.641 314.838 436.86 315.037 437.129 315.037H441.147C441.416 315.037 441.634 314.838 441.634 314.593V312.75C441.634 312.504 441.416 312.305 441.147 312.305Z" fill="#3F3D56"/>
<path d="M451.133 312.305H447.115C446.846 312.305 446.627 312.504 446.627 312.75V314.593C446.627 314.838 446.846 315.037 447.115 315.037H451.133C451.402 315.037 451.62 314.838 451.62 314.593V312.75C451.62 312.504 451.402 312.305 451.133 312.305Z" fill="#3F3D56"/>
<path d="M461.119 312.305H457.101C456.832 312.305 456.613 312.504 456.613 312.75V314.593C456.613 314.838 456.832 315.037 457.101 315.037H461.119C461.388 315.037 461.606 314.838 461.606 314.593V312.75C461.606 312.504 461.388 312.305 461.119 312.305Z" fill="#3F3D56"/>
<path d="M471.105 312.305H467.087C466.818 312.305 466.599 312.504 466.599 312.75V314.593C466.599 314.838 466.818 315.037 467.087 315.037H471.105C471.374 315.037 471.592 314.838 471.592 314.593V312.75C471.592 312.504 471.374 312.305 471.105 312.305Z" fill="#3F3D56"/>
<path d="M481.091 312.305H477.073C476.804 312.305 476.585 312.504 476.585 312.75V314.593C476.585 314.838 476.804 315.037 477.073 315.037H481.091C481.36 315.037 481.578 314.838 481.578 314.593V312.75C481.578 312.504 481.36 312.305 481.091 312.305Z" fill="#3F3D56"/>
<path d="M491.077 312.305H487.059C486.79 312.305 486.572 312.504 486.572 312.75V314.593C486.572 314.838 486.79 315.037 487.059 315.037H491.077C491.346 315.037 491.565 314.838 491.565 314.593V312.75C491.565 312.504 491.346 312.305 491.077 312.305Z" fill="#3F3D56"/>
<path d="M501.063 312.305H497.045C496.776 312.305 496.558 312.504 496.558 312.75V314.593C496.558 314.838 496.776 315.037 497.045 315.037H501.063C501.332 315.037 501.551 314.838 501.551 314.593V312.75C501.551 312.504 501.332 312.305 501.063 312.305Z" fill="#3F3D56"/>
<path d="M511.049 312.305H507.031C506.762 312.305 506.544 312.504 506.544 312.75V314.593C506.544 314.838 506.762 315.037 507.031 315.037H511.049C511.318 315.037 511.537 314.838 511.537 314.593V312.75C511.537 312.504 511.318 312.305 511.049 312.305Z" fill="#3F3D56"/>
<path d="M521.035 312.305H517.017C516.748 312.305 516.53 312.504 516.53 312.75V314.593C516.53 314.838 516.748 315.037 517.017 315.037H521.035C521.304 315.037 521.523 314.838 521.523 314.593V312.75C521.523 312.504 521.304 312.305 521.035 312.305Z" fill="#3F3D56"/>
<path d="M531.021 312.305H527.003C526.734 312.305 526.516 312.504 526.516 312.75V314.593C526.516 314.838 526.734 315.037 527.003 315.037H531.021C531.29 315.037 531.509 314.838 531.509 314.593V312.75C531.509 312.504 531.29 312.305 531.021 312.305Z" fill="#3F3D56"/>
<path d="M541.007 312.305H536.989C536.72 312.305 536.502 312.504 536.502 312.75V314.593C536.502 314.838 536.72 315.037 536.989 315.037H541.007C541.276 315.037 541.495 314.838 541.495 314.593V312.75C541.495 312.504 541.276 312.305 541.007 312.305Z" fill="#3F3D56"/>
<path d="M550.993 312.305H546.975C546.706 312.305 546.488 312.504 546.488 312.75V314.593C546.488 314.838 546.706 315.037 546.975 315.037H550.993C551.262 315.037 551.481 314.838 551.481 314.593V312.75C551.481 312.504 551.262 312.305 550.993 312.305Z" fill="#3F3D56"/>
<path d="M560.979 312.305H556.961C556.692 312.305 556.474 312.504 556.474 312.75V314.593C556.474 314.838 556.692 315.037 556.961 315.037H560.979C561.248 315.037 561.467 314.838 561.467 314.593V312.75C561.467 312.504 561.248 312.305 560.979 312.305Z" fill="#3F3D56"/>
<path d="M570.965 312.305H566.947C566.678 312.305 566.46 312.504 566.46 312.75V314.593C566.46 314.838 566.678 315.037 566.947 315.037H570.965C571.235 315.037 571.453 314.838 571.453 314.593V312.75C571.453 312.504 571.235 312.305 570.965 312.305Z" fill="#3F3D56"/>
<path d="M580.951 312.305H576.933C576.664 312.305 576.446 312.504 576.446 312.75V314.593C576.446 314.838 576.664 315.037 576.933 315.037H580.951C581.221 315.037 581.439 314.838 581.439 314.593V312.75C581.439 312.504 581.221 312.305 580.951 312.305Z" fill="#3F3D56"/>
<path d="M590.937 312.305H586.919C586.65 312.305 586.432 312.504 586.432 312.75V314.593C586.432 314.838 586.65 315.037 586.919 315.037H590.937C591.207 315.037 591.425 314.838 591.425 314.593V312.75C591.425 312.504 591.207 312.305 590.937 312.305Z" fill="#3F3D56"/>
<path d="M524.031 317.769H485.062C484.793 317.769 484.574 317.968 484.574 318.213V320.056C484.574 320.302 484.793 320.501 485.062 320.501H524.031C524.3 320.501 524.518 320.302 524.518 320.056V318.213C524.518 317.968 524.3 317.769 524.031 317.769Z" fill="#3F3D56"/>
<path d="M807.811 545.72L532.446 546C532.131 546 531.828 545.886 531.605 545.682C531.382 545.479 531.257 545.203 531.257 544.916C531.257 544.628 531.382 544.352 531.605 544.149C531.828 543.946 532.131 543.832 532.446 543.832L807.811 543.552C808.126 543.552 808.429 543.666 808.652 543.869C808.875 544.073 809 544.348 809 544.636C809 544.923 808.875 545.199 808.652 545.403C808.429 545.606 808.126 545.72 807.811 545.72Z" fill="#CACACA"/>
<path d="M634.588 97.752H379.621C379.356 97.7467 379.104 97.6469 378.918 97.4741C378.733 97.3013 378.629 97.0692 378.629 96.8275C378.629 96.5857 378.733 96.3536 378.918 96.1808C379.104 96.008 379.356 95.9083 379.621 95.9029H634.588C634.853 95.9083 635.105 96.008 635.29 96.1808C635.476 96.3536 635.579 96.5857 635.579 96.8275C635.579 97.0692 635.476 97.3013 635.29 97.4741C635.105 97.6469 634.853 97.7467 634.588 97.752Z" fill="#CACACA"/>
<path d="M396.977 91.1822C400.259 91.1822 402.919 88.7022 402.919 85.643C402.919 82.5838 400.259 80.1039 396.977 80.1039C393.695 80.1039 391.035 82.5838 391.035 85.643C391.035 88.7022 393.695 91.1822 396.977 91.1822Z" fill="#3F3D56"/>
<path d="M417.504 91.1822C420.786 91.1822 423.446 88.7022 423.446 85.643C423.446 82.5838 420.786 80.1039 417.504 80.1039C414.222 80.1039 411.562 82.5838 411.562 85.643C411.562 88.7022 414.222 91.1822 417.504 91.1822Z" fill="#3F3D56"/>
<path d="M438.032 91.1822C441.313 91.1822 443.974 88.7022 443.974 85.643C443.974 82.5838 441.313 80.1039 438.032 80.1039C434.75 80.1039 432.089 82.5838 432.089 85.643C432.089 88.7022 434.75 91.1822 438.032 91.1822Z" fill="#3F3D56"/>
<path d="M622.229 81.4768H607.647C607.358 81.4821 607.083 81.5904 606.88 81.7787C606.678 81.9669 606.565 82.22 606.565 82.4836C606.565 82.7472 606.678 83.0003 606.88 83.1885C607.083 83.3767 607.358 83.4851 607.647 83.4904H622.229C622.518 83.4851 622.793 83.3767 622.995 83.1885C623.198 83.0003 623.311 82.7472 623.311 82.4836C623.311 82.22 623.198 81.9669 622.995 81.7787C622.793 81.5904 622.518 81.4821 622.229 81.4768Z" fill="#3F3D56"/>
<path d="M622.229 85.256H607.647C607.358 85.2612 607.083 85.3696 606.88 85.5578C606.678 85.7461 606.565 85.9991 606.565 86.2627C606.565 86.5263 606.678 86.7794 606.88 86.9676C607.083 87.1559 607.358 87.2643 607.647 87.2695H622.229C622.518 87.2643 622.793 87.1559 622.995 86.9676C623.198 86.7794 623.311 86.5263 623.311 86.2627C623.311 85.9991 623.198 85.7461 622.995 85.5578C622.793 85.3696 622.518 85.2612 622.229 85.256Z" fill="#3F3D56"/>
<path d="M622.229 89.0301H607.647C607.358 89.0354 607.083 89.1438 606.88 89.332C606.678 89.5202 606.565 89.7733 606.565 90.0369C606.565 90.3005 606.678 90.5536 606.88 90.7418C607.083 90.93 607.358 91.0384 607.647 91.0437H622.229C622.518 91.0384 622.793 90.93 622.995 90.7418C623.198 90.5536 623.311 90.3005 623.311 90.0369C623.311 89.7733 623.198 89.5202 622.995 89.332C622.793 89.1438 622.518 89.0354 622.229 89.0301Z" fill="#3F3D56"/>
<path d="M527.69 148.124H495.831C493.438 148.124 491.498 149.893 491.498 152.075C491.498 154.257 493.438 156.026 495.831 156.026H527.69C530.083 156.026 532.023 154.257 532.023 152.075C532.023 149.893 530.083 148.124 527.69 148.124Z" fill="#1976D2"/>
<path d="M548.272 163.928H475.25C472.857 163.928 470.917 165.697 470.917 167.879C470.917 170.061 472.857 171.83 475.25 171.83H548.272C550.665 171.83 552.605 170.061 552.605 167.879C552.605 165.697 550.665 163.928 548.272 163.928Z" fill="#E6E6E6"/>
<path d="M548.272 179.733H475.25C472.857 179.733 470.917 181.501 470.917 183.684C470.917 185.866 472.857 187.635 475.25 187.635H548.272C550.665 187.635 552.605 185.866 552.605 183.684C552.605 181.501 550.665 179.733 548.272 179.733Z" fill="#E6E6E6"/>
<path d="M405.685 240.368C405.691 243.623 405.055 246.853 403.807 249.902H375.796C374.523 249.9 373.303 249.438 372.402 248.617C371.502 247.796 370.995 246.683 370.993 245.522V213.397C372.558 213.166 374.141 213.05 375.727 213.051C379.661 213.05 383.556 213.757 387.191 215.13C390.826 216.502 394.129 218.515 396.911 221.051C399.693 223.588 401.899 226.6 403.405 229.914C404.91 233.228 405.685 236.781 405.685 240.368Z" fill="#E6E6E6"/>
<path d="M350.418 265.768C349.999 276.831 324.195 306.681 310.624 310.96C308.317 311.689 306.969 312.09 306.969 312.09L302.245 310.787L245.045 295.007C235.029 300.379 205.151 303.111 180.636 304.477C161.123 305.561 144.995 305.779 144.995 305.779C139.239 345.701 127.894 383.888 108.756 419.658L85.7882 416.016L107.486 282.778C107.955 279.9 109.34 277.212 111.47 275.047C113.601 272.882 116.381 271.335 119.468 270.599L275.553 233.369C275.553 233.369 284.161 231.948 302.315 239.934C332.204 253.083 350.718 257.718 350.418 265.768Z" fill="#2F2E41"/>
<path d="M296.746 517.173L285.082 522.714L256.091 484.326L273.307 476.147L296.746 517.173Z" fill="#A0616A"/>
<path d="M303.497 528.073L267.629 545.114L267.393 544.7C265.464 541.324 265.084 537.387 266.338 533.756C267.592 530.125 270.377 527.096 274.079 525.337L278.042 517.691L292.856 516.416L295.987 514.928L303.497 528.073Z" fill="#2F2E41"/>
<path d="M320.593 263.627C325.828 273.616 318.07 310.96 308.204 320.474L305.585 322.098L304.7 322.519C298.781 340.774 235.268 394.168 235.268 394.168C256.721 419.089 270.092 449.73 278.623 483.794L259.564 491.823L189.735 396.766C187.907 394.277 186.947 391.34 186.983 388.344C187.019 385.347 188.049 382.431 189.937 379.978L218.424 342.976L264.843 260.986C298.012 260.053 316.78 256.362 320.593 263.627Z" fill="#2F2E41"/>
<path d="M348.814 269.654C248.561 255.751 239.427 243.249 238.446 243.472L237.576 243.669L252.1 221.282L257.428 215.544L253.33 212.873L254.956 201.779C256.224 197.284 257.251 191.991 256.704 191.282C255.574 190.142 253.059 188.068 253.034 188.047L252.71 187.78L256.486 179.747L261.542 115.52L274.579 91.8207L301.487 77.2749L325.204 77.5367L346.046 95.1652C354.895 99.0467 362.092 105.482 366.522 113.473C370.951 121.465 372.366 130.565 370.546 139.364L359.959 190.356L356.064 216.638L362.419 222.433L358.465 226.039L356.114 238.317L358.522 252.222C360.404 264.857 352.035 265.61 351.417 265.768C351.38 265.778 349.562 270.117 349.485 270.117C349.292 270.117 349.276 269.718 348.814 269.654Z" fill="#1976D2"/>
<path d="M343.55 320.351C344.695 319.331 345.581 318.095 346.145 316.729C346.709 315.364 346.938 313.902 346.816 312.447C346.693 310.992 346.223 309.579 345.437 308.308C344.651 307.037 343.569 305.938 342.267 305.089L353.264 271.064L333.93 276.447L326.451 307.933C325.033 310.022 324.504 312.513 324.965 314.934C325.426 317.354 326.845 319.537 328.952 321.067C331.06 322.598 333.71 323.37 336.4 323.238C339.091 323.106 341.635 322.079 343.55 320.351Z" fill="#A0616A"/>
<path d="M345.335 296.741L324.438 288.193L341.2 224.716L309.983 155.615C308.44 152.199 307.74 148.515 307.934 144.825C308.128 141.136 309.21 137.53 311.104 134.264C312.998 130.999 315.657 128.153 318.892 125.93C322.128 123.707 325.86 122.16 329.825 121.401C336.987 120.035 344.451 121.317 350.579 124.964C356.706 128.611 360.997 134.325 362.51 140.853L381.496 223.232L345.335 296.741Z" fill="#1976D2"/>
<path d="M262.821 54.2657L270.46 25.2965C270.722 24.3056 271.405 23.4502 272.358 22.9179C273.312 22.3855 274.458 22.2198 275.545 22.457L282.469 23.9751C283.556 24.2145 284.494 24.8372 285.078 25.7066C285.661 26.5759 285.843 27.621 285.583 28.6123L277.944 57.5816C277.682 58.5724 276.999 59.4279 276.045 59.9602C275.092 60.4925 273.946 60.6583 272.859 60.421L265.935 58.9029C264.848 58.6635 263.91 58.0408 263.326 57.1715C262.743 56.3021 262.561 55.2571 262.821 54.2657Z" fill="#3F3D56"/>
<path d="M275.966 24.1122C275.38 23.9844 274.762 24.0738 274.248 24.3606C273.735 24.6475 273.367 25.1084 273.225 25.6424L265.586 54.6116C265.446 55.1459 265.544 55.709 265.859 56.1775C266.173 56.6459 266.679 56.9815 267.264 57.1105L274.188 58.6286C274.774 58.7564 275.392 58.6671 275.906 58.3803C276.419 58.0934 276.787 57.6324 276.929 57.0985L284.568 28.1292C284.708 27.595 284.61 27.0319 284.295 26.5634C283.981 26.0949 283.475 25.7594 282.89 25.6303L275.966 24.1122Z" fill="#1976D2"/>
<path d="M308.001 72.5347C326.729 72.5347 341.911 58.6906 341.911 41.6132C341.911 24.5357 326.729 10.6917 308.001 10.6917C289.273 10.6917 274.091 24.5357 274.091 41.6132C274.091 58.6906 289.273 72.5347 308.001 72.5347Z" fill="#A0616A"/>
<path d="M323.642 62.2884L324.863 56.0254C325.614 51.8721 324.834 47.609 322.645 43.9028C320.457 40.1965 316.983 37.256 312.768 35.5411L311.72 35.0791L312.583 34.6585C312.858 34.5247 313.072 34.3075 313.189 34.0446C313.306 33.7817 313.319 33.4897 313.225 33.2193C313.131 32.9488 312.935 32.717 312.673 32.5639C312.411 32.4109 312.099 32.3464 311.79 32.3816L310.81 32.4927C310.142 32.5673 309.464 32.4641 308.859 32.1956C308.254 31.9271 307.747 31.5047 307.399 30.9794C307.051 30.454 306.877 29.8482 306.898 29.2348C306.919 28.6214 307.135 28.0266 307.518 27.5222C304.133 28.8013 300.521 29.5095 296.858 29.6124C291.557 29.576 286.952 27.2199 285.125 23.6095C284.68 22.7119 284.406 21.7517 284.316 20.7702C278.717 22.7821 275.697 28.813 275.666 28.8761L274.011 32.2446L274.719 28.6102C274.741 28.4995 276.908 17.4924 280.05 10.6634C283.429 3.32081 297.493 -0.549215 318.621 0.0630316C339.257 0.65438 343.835 22.1102 344.228 24.1862C350.091 29.3301 347.961 39.0692 346.158 44.4407C343.238 53.1398 337.475 61.7958 334.3 62.2515C334.016 62.3002 333.722 62.2711 333.456 62.1678C333.19 62.0646 332.963 61.8918 332.804 61.6713C332.487 61.2104 332.065 60.8164 331.568 60.5152C331.07 60.2141 330.508 60.0127 329.919 59.9243C327.354 59.5918 324.705 61.5099 324.679 61.529L323.642 62.2884Z" fill="#2F2E41"/>
<path d="M276.554 545.72L1.189 546C0.874249 545.999 0.572708 545.885 0.350467 545.681C0.128226 545.478 0.00341797 545.203 0.00341797 544.916C0.00341797 544.629 0.128226 544.353 0.350467 544.15C0.572708 543.947 0.874249 543.832 1.189 543.832L276.554 543.552C276.869 543.552 277.172 543.666 277.395 543.869C277.618 544.073 277.743 544.348 277.743 544.636C277.743 544.923 277.618 545.199 277.395 545.403C277.172 545.606 276.869 545.72 276.554 545.72Z" fill="#CACACA"/>
</g>
<defs>
<clipPath id="clip0_3_87">
<rect width="809" height="546" fill="white"/>
</clipPath>
</defs>
</svg>
