<svg width="546" height="524" viewBox="0 0 546 524" fill="none" xmlns="http://www.w3.org/2000/svg">
<g clip-path="url(#clip0_3_39)">
<path d="M159.753 522.311C159.753 522.971 160.283 523.501 160.943 523.501H544.233C544.893 523.501 545.423 522.971 545.423 522.311C545.423 521.651 544.893 521.121 544.233 521.121H160.943C160.283 521.121 159.753 521.651 159.753 522.311Z" fill="#CCCCCC"/>
<path d="M217.914 522.994H41.4889C19.9769 522.994 2.47552 505.492 2.47552 483.98V104.831C2.47552 83.3188 19.9769 65.8174 41.4889 65.8174H217.914C239.425 65.8174 256.927 83.3188 256.927 104.831V483.98C256.927 505.492 239.425 522.994 217.914 522.994Z" fill="#3F3D56"/>
<path d="M256.927 205.281C256.016 205.281 255.276 206.021 255.276 206.931V259.746C255.276 260.656 256.016 261.396 256.927 261.396C257.837 261.396 258.577 260.656 258.577 259.746V206.931C258.577 206.021 257.837 205.281 256.927 205.281Z" fill="#3F3D56"/>
<path d="M253.213 104.831V483.973C253.213 502.698 238.64 518.014 220.213 519.202H220.204C219.932 519.219 219.66 519.235 219.379 519.244C218.892 519.268 218.405 519.277 217.91 519.277C217.91 519.277 216.095 519.145 212.777 518.897C209.427 518.649 204.55 518.278 198.468 517.791C196.644 517.651 194.721 517.494 192.691 517.329C188.648 516.999 184.208 516.636 179.446 516.223C177.548 516.066 175.584 515.893 173.579 515.72C163.33 514.837 151.851 513.805 139.745 512.633C137.698 512.444 135.635 512.246 133.556 512.039C133.011 511.982 132.458 511.932 131.905 511.874C123.273 511.024 6.18942 488.397 6.18942 483.973V104.831C6.18942 85.331 21.9925 69.5278 41.4927 69.5278H62.5689C65.9359 69.5278 68.6426 72.1521 68.9315 75.5107C68.9562 75.7336 68.981 75.9563 69.0222 76.1792C69.6329 79.5544 72.7275 81.9063 76.1604 81.9063H183.242C186.675 81.9063 189.77 79.5544 190.381 76.1792C190.422 75.9563 190.447 75.7336 190.471 75.5107C190.76 72.1521 193.467 69.5278 196.834 69.5278H217.91C237.41 69.5278 253.213 85.331 253.213 104.831Z" fill="white"/>
<path d="M1.65045 165.67C0.7402 165.67 0 166.41 0 167.32V180.524C0 181.434 0.74021 182.175 1.65045 182.175C2.56069 182.175 3.3009 181.434 3.3009 180.524V167.32C3.3009 166.41 2.56069 165.67 1.65045 165.67Z" fill="#3F3D56"/>
<path d="M1.65045 205.281C0.7402 205.281 0 206.021 0 206.931V232.513C0 233.424 0.74021 234.164 1.65045 234.164C2.56069 234.164 3.3009 233.424 3.3009 232.513V206.931C3.3009 206.021 2.56069 205.281 1.65045 205.281Z" fill="#3F3D56"/>
<path d="M1.65045 241.591C0.7402 241.591 0 242.331 0 243.241V268.823C0 269.734 0.74021 270.474 1.65045 270.474C2.56069 270.474 3.3009 269.734 3.3009 268.823V243.241C3.3009 242.331 2.56069 241.591 1.65045 241.591Z" fill="#3F3D56"/>
<path d="M61.9944 75.3077H30.431C30.2597 75.3077 30.1208 75.4465 30.1208 75.6179V79.1236C30.1208 79.2949 30.2597 79.4338 30.431 79.4338H61.9944C62.1658 79.4338 62.3046 79.2949 62.3046 79.1236V75.6179C62.3046 75.4465 62.1658 75.3077 61.9944 75.3077Z" fill="#E6E6E6"/>
<path d="M202.049 79.4338C203.872 79.4338 205.35 77.9559 205.35 76.1329C205.35 74.3098 203.872 72.832 202.049 72.832C200.226 72.832 198.748 74.3098 198.748 76.1329C198.748 77.9559 200.226 79.4338 202.049 79.4338Z" fill="#E6E6E6"/>
<path d="M211.127 79.4338C212.95 79.4338 214.428 77.9559 214.428 76.1329C214.428 74.3098 212.95 72.832 211.127 72.832C209.304 72.832 207.826 74.3098 207.826 76.1329C207.826 77.9559 209.304 79.4338 211.127 79.4338Z" fill="#E6E6E6"/>
<path d="M220.204 79.4338C222.027 79.4338 223.505 77.9559 223.505 76.1329C223.505 74.3098 222.027 72.832 220.204 72.832C218.381 72.832 216.903 74.3098 216.903 76.1329C216.903 77.9559 218.381 79.4338 220.204 79.4338Z" fill="#E6E6E6"/>
<path d="M199.289 298.516H59.2886C57.083 298.516 55.2886 296.721 55.2886 294.516C55.2886 292.31 57.083 290.516 59.2886 290.516H199.289C201.494 290.516 203.289 292.31 203.289 294.516C203.289 296.721 201.494 298.516 199.289 298.516Z" fill="#E6E6E6"/>
<path d="M129.791 453.516C161.823 453.516 187.791 427.548 187.791 395.516C187.791 363.483 161.823 337.516 129.791 337.516C97.7582 337.516 71.7907 363.483 71.7907 395.516C71.7907 427.548 97.7582 453.516 129.791 453.516Z" fill="#1976D2"/>
<path d="M139.009 376.578C134.114 376.779 128.58 377.115 124.962 380.871C121.819 384.134 121.13 388.976 124.318 392.46C127.513 395.953 132.482 396.426 136.166 399.15C140.491 402.35 139.858 408.68 135.672 411.712C130.736 415.288 124.363 413.621 119.85 410.219C118.694 409.347 117.571 411.299 118.715 412.161C122.758 415.209 128.033 416.906 133.032 415.448C137.544 414.131 141.041 410.453 141.396 405.668C141.566 403.384 140.917 401.067 139.497 399.264C137.998 397.36 135.839 396.189 133.656 395.236C129.899 393.596 123.429 391.473 124.522 386.132C125.846 379.659 133.726 379.045 139.009 378.828C140.451 378.769 140.459 376.518 139.009 376.578Z" fill="white"/>
<path d="M129.928 373.516L129.712 422.909C129.706 424.357 131.956 424.359 131.962 422.909L132.178 373.516C132.184 372.068 129.934 372.066 129.928 373.516Z" fill="white"/>
<path d="M437.086 0H151.126C140.636 0 132.106 8.52997 132.106 19.02V214.98C132.106 225.47 140.636 234 151.126 234H437.086C447.576 234 456.106 225.47 456.106 214.98V19.02C456.106 8.52997 447.576 0 437.086 0Z" fill="white"/>
<path d="M292.791 116.516C310.464 116.516 324.791 102.189 324.791 84.5157C324.791 66.8426 310.464 52.5157 292.791 52.5157C275.118 52.5157 260.791 66.8426 260.791 84.5157C260.791 102.189 275.118 116.516 292.791 116.516Z" fill="#1976D2"/>
<path d="M298.861 70.2358C294.9 70.3991 290.441 70.6502 287.444 73.598C284.962 76.0398 284.095 79.841 286.375 82.716C288.777 85.743 292.77 86.3174 295.905 88.2518C297.853 89.4541 299.144 91.2754 299.186 93.6161C299.225 95.8075 298.214 97.8548 296.523 99.2283C292.375 102.598 286.718 101.203 282.794 98.2561C282.022 97.6762 281.273 98.9779 282.037 99.5513C285.287 101.992 289.472 103.41 293.516 102.359C297.238 101.393 300.237 98.4644 300.64 94.5513C301.065 90.427 298.357 87.6188 294.846 86.0078C291.636 84.5352 286.007 82.9662 286.538 78.3913C287.212 72.5747 294.333 71.9224 298.861 71.7358C299.823 71.6962 299.828 70.196 298.861 70.2358Z" fill="white"/>
<path d="M291.977 67.5157L291.798 108.674C291.793 109.639 293.293 109.641 293.298 108.674L293.477 67.5157C293.482 66.5504 291.982 66.5492 291.977 67.5157Z" fill="white"/>
<path d="M437.086 0H151.126C140.636 0 132.106 8.52997 132.106 19.02V214.98C132.106 225.47 140.636 234 151.126 234H437.086C447.576 234 456.106 225.47 456.106 214.98V19.02C456.106 8.52997 447.576 0 437.086 0ZM454.106 214.98C454.106 224.37 446.476 232 437.086 232H151.126C141.736 232 134.106 224.37 134.106 214.98V19.02C134.106 9.63001 141.736 2 151.126 2H437.086C446.476 2 454.106 9.63 454.106 19.02V214.98Z" fill="#3F3D56"/>
<path d="M261.136 19.35H233.076C231.666 19.35 230.516 20.5 230.516 21.91C230.516 23.33 231.666 24.48 233.076 24.48H261.136C262.546 24.48 263.696 23.33 263.696 21.91C263.696 20.5 262.546 19.35 261.136 19.35Z" fill="#E6E6E6"/>
<path d="M308.136 19.35H280.076C278.666 19.35 277.516 20.5 277.516 21.91C277.516 23.33 278.666 24.48 280.076 24.48H308.136C309.546 24.48 310.696 23.33 310.696 21.91C310.696 20.5 309.546 19.35 308.136 19.35Z" fill="#E6E6E6"/>
<path d="M355.136 19.35H327.076C325.666 19.35 324.516 20.5 324.516 21.91C324.516 23.33 325.666 24.48 327.076 24.48H355.136C356.546 24.48 357.696 23.33 357.696 21.91C357.696 20.5 356.546 19.35 355.136 19.35Z" fill="#E6E6E6"/>
<path d="M401.416 134.516H186.796C177.866 134.516 170.606 141.776 170.606 150.706V165.326C170.606 174.256 177.866 181.516 186.796 181.516H401.416C410.346 181.516 417.606 174.256 417.606 165.326V150.706C417.606 141.776 410.346 134.516 401.416 134.516Z" fill="#1976D2"/>
<path d="M73.1793 211.492L64.9493 207.593C68.3249 212.304 71.2335 219.661 72.7907 225.516C75.4273 220.062 79.6774 213.39 83.8845 209.404L75.1863 211.641C80.5461 185.374 100.705 166.516 123.791 166.516V164.516C99.6776 164.516 78.6517 184.163 73.1793 211.492Z" fill="#3F3D56"/>
<path d="M111.058 251.516H59.0584C56.8529 251.516 55.0584 249.721 55.0584 247.516C55.0584 245.31 56.8529 243.516 59.0584 243.516H111.058C113.264 243.516 115.058 245.31 115.058 247.516C115.058 249.721 113.264 251.516 111.058 251.516Z" fill="#E6E6E6"/>
<path d="M456.979 238.488L456.454 279.327L446.293 315.732L438.17 312.702L441.776 279.333L441.302 234.176L456.979 238.488Z" fill="#FFB6B6"/>
<path d="M446.258 321.603C447.211 316.368 445.464 311.665 442.356 311.1C439.248 310.534 435.955 314.319 435.002 319.553C434.049 324.788 435.796 329.491 438.904 330.057C442.012 330.622 445.305 326.838 446.258 321.603Z" fill="#FFB6B6"/>
<path d="M444.648 189.861C444.648 189.861 462.055 190.101 462.041 199.348C462.032 204.569 460.911 251.971 457.791 280.768C455.384 302.974 450.791 308.768 450.791 308.768L439.791 283.768L444.648 189.861Z" fill="#E6E6E6"/>
<path d="M444.201 273.299H385.413C390.34 262.303 393.37 251.832 388.634 243.502L444.201 240.281C441.424 251.525 441.084 262.56 444.201 273.299Z" fill="#FFB6B6"/>
<path d="M436.953 175.856L413.599 174.245L403.935 186.325L399.036 187.216C391.692 188.551 386.463 195.105 386.791 202.562L388.696 245.874L444.517 249.945L457.891 193.542L441.785 187.13L436.953 175.856Z" fill="#E6E6E6"/>
<path d="M294.531 188.922C296.188 190.412 297.37 192.154 297.995 193.842L314.677 207.045L308.162 214.799L291.942 200.571C290.197 200.128 288.34 199.135 286.683 197.645C282.898 194.239 281.586 189.526 283.753 187.118C285.92 184.709 290.745 185.517 294.531 188.922Z" fill="#FFB6B6"/>
<path d="M412.468 200.037L348.551 243.196L302.735 211.312L309.613 198.852L345.673 219.809L378.928 194.274C390.77 183.151 405.612 185.307 412.468 200.037Z" fill="#E6E6E6"/>
<path d="M423.891 170.628C433.46 170.628 441.217 162.871 441.217 153.302C441.217 143.734 433.46 135.976 423.891 135.976C414.322 135.976 406.565 143.734 406.565 153.302C406.565 162.871 414.322 170.628 423.891 170.628Z" fill="#FFB6B6"/>
<path d="M447.441 149.046V152.406L427.901 146.906L413.251 149.976C413.081 147.746 412.421 145.556 411.321 143.616C412.086 146.727 412.172 149.134 411.361 150.376L409.391 150.786C409.071 149.916 408.451 149.156 407.641 148.696C407.561 148.646 407.461 148.606 407.371 148.636C407.231 148.686 407.221 148.866 407.221 149.006C407.241 149.746 407.261 150.486 407.291 151.226L401.631 152.406V149.046C396.201 136.828 410.513 126.255 424.541 126.146C430.871 126.096 436.591 128.706 440.741 132.846C444.881 136.996 447.441 142.716 447.441 149.046Z" fill="#2F2E41"/>
<path d="M458.433 188.444L456.958 188.322C457.063 187.839 457.168 187.363 457.264 186.88C458.081 182.831 456.281 177.676 456.149 173.785C455.454 177.896 456.642 182.953 455.413 186.856C455.276 187.29 449.937 190.088 449.791 190.516C443.881 188.355 437.728 181.45 430.759 185.483C426.638 187.868 421.936 186.823 417.256 185.73C416.098 185.46 415.937 179.741 414.791 179.516C412.738 179.113 409.723 184.313 407.791 184.516L415.791 153.516C415.791 136.652 414.229 118.958 435.591 124.921C440.964 126.421 446.281 127.597 450.246 132.031C454.212 136.472 457.035 142.677 458.036 149.744C458.639 154.007 462.403 168.483 458.433 188.444Z" fill="#2F2E41"/>
<path d="M444.638 500.18L435.102 500.405L429.786 457.561L443.859 457.228L444.638 500.18Z" fill="#FFB7B7"/>
<path d="M411.919 520.077C411.919 521.688 413.063 522.994 414.473 522.994H433.402C433.402 522.994 435.265 515.506 442.86 512.283L443.384 522.994H453.149L451.966 505.772C451.966 505.772 454.578 496.558 449.153 491.848C443.728 487.138 448.122 487.794 448.122 487.794L445.988 477.135L431.232 478.87L431.124 495.602L423.963 512.211L413.46 517.399C412.525 517.861 411.919 518.913 411.919 520.077Z" fill="#2F2E41"/>
<path d="M415.624 493.198L406.457 495.836L390.443 455.743L403.972 451.85L415.624 493.198Z" fill="#FFB7B7"/>
<path d="M389.025 520.746C389.434 522.304 390.872 523.277 392.236 522.919L410.545 518.116C410.545 518.116 410.447 510.401 416.976 505.356L420.201 515.583L429.646 513.105L424.131 496.747C424.131 496.747 424.32 487.172 417.877 483.993C411.435 480.814 415.851 480.333 415.851 480.333L411.082 470.565L397.25 475.988L401.391 492.2L398.679 510.081L389.836 517.765C389.049 518.449 388.73 519.621 389.025 520.746Z" fill="#2F2E41"/>
<path d="M438.791 270.768L444.791 272.768C454.172 290.093 458.149 313.101 457.622 340.846L446.964 465.457H429.527L416.767 326.635L394.267 378.74L410.729 465.457L394.267 467.136L361.11 376.964L384.202 272.162L438.791 270.768Z" fill="#2F2E41"/>
</g>
<defs>
<clipPath id="clip0_3_39">
<rect width="545.563" height="523.501" fill="white"/>
</clipPath>
</defs>
</svg>
